<?xml version="1.0" encoding="UTF-8"?>
<svg width="80px" height="80px" viewBox="0 0 80 80" version="1.1" xmlns="http://www.w3.org/2000/svg" xmlns:xlink="http://www.w3.org/1999/xlink">
    <title>antpool</title>
    <g id="页面-1" stroke="none" stroke-width="1" fill="none" fill-rule="evenodd">
        <g id="画板" transform="translate(-186.000000, -656.000000)" fill="#231815">
            <g id="antpool" transform="translate(186.000000, 656.000000)">
                <path d="M40.5207678,52.3427914 C39.151756,43.2353193 40.9656034,34.0327252 45.4475316,26.2187268 C47.9141775,26.8258294 50.591584,25.8643504 52.0827624,23.6373749 C53.9880015,20.7669265 53.2251598,16.9014266 50.3649697,14.984064 C47.5094424,13.0797575 43.6383471,13.8398015 41.7368382,16.7139802 C40.2587158,18.9241695 40.3939384,21.7451917 41.8459488,23.7903162 C36.8492424,32.3680889 34.7658825,42.5060501 36.165669,52.5386309 C33.0872577,52.9321752 30.1617877,53.8190486 27.489044,55.1293085 C19.2013004,42.2001674 18.9094062,25.3495721 27.2102058,12.0278193 C27.5944243,12.1891538 28.0122154,12.3066575 28.430939,12.381263 C31.8096377,12.9706469 35.0409904,10.7035708 35.6285091,7.30528818 C36.2178929,3.92006152 33.9545472,0.692439068 30.5721182,0.0946621272 C27.1840938,-0.500317105 23.9667296,1.77142178 23.3689527,5.16597414 C23.1292824,6.5415139 23.3689527,7.88627888 23.9583365,9.05292311 C14.340749,23.868652 14.5104766,42.8212585 23.7485084,57.3525538 C16.6423301,62.3623163 12,70.6528576 12,80 L35.1193263,80 C35.1193263,73.482273 40.3986012,68.1974026 46.9079351,68.1974026 C53.4209993,68.1974026 58.7012069,73.482273 58.7012069,80 L67.2892378,80 C67.2892378,65.0052177 55.3831252,52.7969527 40.5207678,52.3427914" id="Fill-1"></path>
            </g>
        </g>
    </g>
</svg>