<svg width="198" height="52" xmlns="http://www.w3.org/2000/svg">
  <g clip-path="url(#Frame_90175__clip0)" fill="#FBFCFE">
    <path opacity=".1" d="M5.64 4.311L4.278.424 5.29-.16l1.751 5.556-1.021.59-2.704-2.832 1.1 3.758-1.021.59-3.937-4.295L.47 2.623l2.686 3.113L1.948 1.77l.86-.496 2.831 3.038zm5.16-2.438L9.022 2.9l.248 1.21-1.08.623L7.18-1.25l.941-.543 4.688 3.861-1.08.623-.927-.817zm-1.98.047l1.232-.711L8.37-.278l.45 2.198zm5.3-3.014l-.81.466 1.042 1.804-1.015.585-2.844-4.925 1.83-1.057c.582-.336 1.106-.465 1.571-.388.466.077.835.352 1.109.826.194.336.283.66.266.97-.015.306-.132.611-.35.915l2.227 1.397.027.048-1.09.629-1.964-1.27zm-1.284-.356l.819-.472c.255-.147.415-.326.48-.535.065-.211.031-.431-.1-.659-.134-.232-.306-.376-.516-.433-.208-.057-.448-.007-.721.15l-.815.471.853 1.478zm5.777-2.239l-.808.467 1.04 1.803-1.014.586-2.844-4.926 1.83-1.056c.582-.336 1.106-.466 1.572-.389.465.077.834.353 1.108.826.194.336.283.66.266.97-.015.306-.132.611-.35.915l2.227 1.398.027.047-1.089.629-1.965-1.27zm-1.283-.355l.819-.473c.255-.147.415-.325.48-.535.065-.211.031-.43-.1-.659-.134-.232-.306-.376-.516-.432-.208-.058-.448-.008-.72.15l-.816.47.853 1.479zm7.19-2.004l-1.78 1.027.248 1.21-1.079.623-1.01-5.984.94-.543 4.688 3.861-1.08.623-.927-.817zm-1.98.047l1.231-.711-1.683-1.486.452 2.197zm8.521-2.47l-1.014.585-3.847-2.1 1.871 3.24-1.015.587-2.844-4.926 1.015-.586 3.854 2.105-1.875-3.247 1.012-.584 2.843 4.925zm2.193-6.738l-1.509.871 2.37 4.103-1.015.586-2.37-4.103-1.488.86-.475-.823 4.012-2.316.475.822zm3.21.01l-.256-2.812 1.11-.64.195 4.073 1.031 1.786-1.031.596-1.032-1.787-3.43-2.205 1.114-.643 2.3 1.631zm-64.302 65.525l-1.36-3.888 1.01-.584 1.752 5.557-1.022.59-2.704-2.832 1.1 3.757-1.02.59-3.937-4.294 1.011-.584 2.686 3.113-1.207-3.967.859-.496 2.832 3.038zm5.161-2.439l-1.78 1.027.248 1.21-1.079.624-1.01-5.984.94-.543 4.688 3.86-1.08.624-.927-.818zm-1.98.047l1.232-.71-1.684-1.487.452 2.197zm5.299-3.014l-.809.467 1.041 1.803-1.015.586-2.843-4.925 1.83-1.057c.582-.336 1.105-.465 1.57-.388.466.077.836.352 1.11.826.193.336.282.659.266.969-.016.307-.133.612-.352.915l2.228 1.398.028.047-1.09.63-1.964-1.27zm-1.283-.355l.818-.473c.255-.147.415-.325.481-.534.064-.212.03-.431-.1-.66-.135-.232-.307-.376-.517-.432-.207-.058-.448-.008-.72.15l-.816.47.854 1.479zm5.777-2.24l-.809.467 1.041 1.803-1.014.586-2.844-4.925 1.83-1.057c.582-.336 1.105-.465 1.57-.388.466.077.836.352 1.11.826.193.336.282.66.266.97-.016.306-.133.611-.351.915l2.227 1.397.028.048-1.09.629-1.964-1.27zm-1.283-.355l.818-.472c.255-.147.415-.326.481-.535.064-.212.03-.431-.1-.659-.135-.232-.307-.377-.517-.433-.207-.057-.448-.007-.72.15l-.816.471.854 1.478zm7.19-2.004l-1.78 1.028.248 1.21-1.08.623-1.01-5.984.94-.543 4.688 3.861-1.079.623-.928-.818zm-1.98.047l1.23-.71-1.683-1.487.453 2.197zm8.52-2.47l-1.014.586-3.847-2.1 1.871 3.24-1.014.586-2.844-4.925 1.015-.586 3.854 2.105-1.875-3.248 1.011-.584 2.844 4.926zm2.194-6.737l-1.51.87 2.37 4.104-1.015.586-2.37-4.103-1.488.859-.474-.822 4.012-2.316.475.822zm3.21.01l-.256-2.812 1.11-.64.195 4.072 1.03 1.787-1.031.595-1.031-1.786-3.43-2.206 1.113-.642 2.3 1.631zm14.208-6.49l-1.36-3.888 1.011-.584 1.751 5.557-1.021.59-2.705-2.832 1.101 3.757-1.022.59-3.936-4.294 1.011-.584 2.686 3.113-1.207-3.967.859-.496 2.832 3.038zm5.162-2.439l-1.78 1.027.248 1.21-1.08.624-1.01-5.984.94-.543 4.688 3.86-1.079.624-.927-.818zm-1.98.047l1.23-.71-1.683-1.487.453 2.197zm5.298-3.014l-.809.467 1.041 1.803-1.014.586-2.844-4.925 1.83-1.057c.582-.336 1.105-.465 1.571-.388.466.077.835.352 1.108.826.194.336.283.659.267.969-.016.307-.133.612-.351.915l2.227 1.398.028.047-1.09.63-1.964-1.27zm-1.283-.355l.819-.473c.254-.147.415-.325.48-.534.065-.212.03-.431-.1-.66-.135-.232-.307-.376-.517-.432-.207-.058-.448-.008-.72.15l-.816.47.854 1.479zm5.777-2.24l-.808.467 1.04 1.803-1.014.586-2.844-4.925 1.83-1.057c.582-.336 1.106-.465 1.571-.388.466.077.835.352 1.108.826.195.336.283.66.267.97-.015.306-.133.611-.351.915l2.228 1.397.027.048-1.09.629-1.964-1.27zm-1.283-.355l.819-.472c.255-.147.415-.326.48-.535.065-.211.031-.431-.1-.659-.135-.232-.307-.377-.517-.433-.207-.057-.447-.007-.72.15l-.816.471.854 1.478zm7.19-2.004l-1.78 1.028.248 1.21-1.08.623-1.01-5.984.941-.543 4.687 3.861-1.079.623-.927-.818zm-1.98.048l1.231-.711-1.683-1.487.452 2.197zm8.521-2.471l-1.015.586-3.846-2.1 1.87 3.24-1.014.586-2.844-4.925 1.015-.586 3.854 2.105L38.762 7.2l1.011-.584 2.844 4.926zm2.193-6.737l-1.509.87 2.37 4.104-1.016.586-2.369-4.103-1.488.859-.475-.822 4.012-2.316.475.822zm3.21.01l-.256-2.812 1.11-.64.195 4.072L50.1 7.223l-1.032.595-1.031-1.786-3.43-2.206 1.113-.642 2.3 1.631zm14.208-6.49l-1.36-3.888 1.011-.584L63.63-.589 62.61 0l-2.704-2.832 1.1 3.757-1.022.59-3.936-4.294 1.012-.584L59.745-.25l-1.208-3.967.86-.496 2.831 3.038zm5.162-2.439l-1.78 1.028.248 1.21-1.08.623-1.01-5.984.941-.543 4.687 3.86-1.079.624-.927-.818zm-1.98.047l1.231-.71-1.684-1.487.453 2.197zm5.298-3.014l-.808.467 1.04 1.803-1.014.586-2.844-4.925 1.83-1.057c.582-.336 1.106-.465 1.571-.388.466.077.835.352 1.109.826.194.336.282.659.266.969-.015.307-.132.612-.351.915l2.228 1.398.027.047-1.09.63-1.964-1.27zm-1.283-.355l.819-.473c.255-.147.415-.325.48-.534.065-.212.031-.431-.1-.66-.134-.232-.306-.376-.516-.432-.208-.058-.448-.008-.721.15l-.816.47.854 1.479zm5.777-2.24l-.808.467 1.04 1.804-1.014.585-2.844-4.925 1.83-1.057c.582-.336 1.106-.465 1.571-.388.466.077.835.352 1.109.826.194.336.282.66.266.97-.015.306-.132.611-.35.915l2.227 1.397.027.048-1.09.628-1.964-1.27zm-1.283-.355l.819-.472c.255-.147.415-.326.48-.535.065-.211.031-.431-.1-.659-.134-.232-.306-.377-.516-.433-.208-.057-.448-.007-.721.15l-.815.471.853 1.478zm7.19-2.004l-1.78 1.028.248 1.21-1.08.623-1.01-5.984.941-.543 4.688 3.861-1.08.623-.927-.818zm-1.98.048l1.231-.711-1.683-1.487.452 2.197zm8.521-2.471l-1.015.586-3.846-2.1 1.87 3.24-1.014.586-2.844-4.925 1.015-.586 3.854 2.105-1.875-3.248 1.012-.584 2.843 4.926zm2.193-6.737l-1.509.87 2.37 4.104-1.015.586-2.37-4.103-1.488.859-.475-.822 4.012-2.316.475.822zm3.21.01l-.256-2.812 1.11-.64.195 4.072 1.031 1.787-1.032.595-1.03-1.786-3.43-2.206 1.113-.642 2.3 1.631zM-16.283 70.342l-1.36-3.888 1.012-.584 1.75 5.556-1.021.59-2.704-2.832 1.1 3.758-1.021.59-3.937-4.295 1.012-.584 2.686 3.113-1.208-3.966.86-.496 2.831 3.038zm5.162-2.44l-1.78 1.028.248 1.21-1.079.623-1.01-5.984.94-.543 4.688 3.861-1.08.623-.927-.817zm-1.98.048l1.231-.711-1.683-1.486.452 2.197zm5.298-3.014l-.808.467 1.04 1.803-1.014.586-2.844-4.926 1.83-1.056c.582-.336 1.106-.466 1.571-.389.466.077.835.353 1.109.826.194.336.283.66.266.97-.015.306-.132.611-.35.915l2.227 1.397.027.048-1.089.629-1.965-1.27zm-1.283-.355l.819-.473c.255-.147.415-.325.48-.535.065-.211.031-.43-.1-.659-.134-.232-.306-.376-.516-.432-.208-.058-.448-.008-.72.15l-.816.47.853 1.479zm5.778-2.24l-.809.467 1.041 1.803-1.015.586-2.844-4.925 1.83-1.057c.582-.336 1.106-.466 1.572-.388.465.077.835.352 1.108.826.194.336.283.659.266.969-.015.306-.132.612-.35.915l2.227 1.398.027.047-1.089.63-1.964-1.27zm-1.284-.355l.82-.473c.254-.147.414-.325.48-.534.064-.212.03-.431-.101-.66-.134-.232-.306-.376-.516-.432-.208-.058-.448-.008-.72.15l-.816.47.853 1.479zm7.19-2.004l-1.78 1.027.248 1.21-1.079.624-1.01-5.985.94-.542 4.688 3.86-1.08.624-.927-.818zm-1.98.047l1.231-.71-1.683-1.487.452 2.197zm8.522-2.47l-1.015.585-3.847-2.1 1.871 3.241-1.015.586-2.844-4.926 1.015-.586 3.854 2.105-1.875-3.247 1.012-.584 2.844 4.925zm2.192-6.738l-1.509.871 2.37 4.104-1.015.586-2.37-4.104-1.488.86-.474-.822 4.012-2.317.474.822zm3.21.01l-.256-2.811 1.11-.64.195 4.072 1.031 1.786-1.031.596-1.032-1.786-3.43-2.206 1.114-.643 2.3 1.632zm14.208-6.489l-1.36-3.888 1.012-.584 1.75 5.556-1.02.59-2.705-2.832 1.1 3.758-1.021.59-3.936-4.295 1.011-.584 2.686 3.113-1.208-3.966.86-.496 2.832 3.038zm5.162-2.44l-1.78 1.028.248 1.21-1.079.623-1.01-5.984.94-.543 4.688 3.861-1.08.623-.927-.817zm-1.98.048l1.232-.711-1.684-1.486.452 2.197zm5.299-3.014l-.809.467 1.041 1.803-1.015.586-2.843-4.926 1.83-1.056c.581-.336 1.105-.466 1.57-.389.466.077.836.353 1.109.826.194.336.283.66.267.97-.016.306-.133.611-.352.915l2.228 1.398.028.047-1.09.629-1.964-1.27zm-1.284-.355l.82-.473c.254-.147.414-.325.48-.535.064-.211.03-.43-.101-.659-.134-.232-.306-.376-.516-.432-.208-.058-.448-.008-.72.15l-.816.47.853 1.479zm5.778-2.24l-.809.467 1.041 1.803-1.015.586-2.843-4.925 1.83-1.057c.582-.336 1.105-.466 1.57-.388.466.077.836.352 1.11.826.193.336.282.659.266.969-.016.306-.133.612-.352.915l2.228 1.398.028.047-1.09.63-1.964-1.27zm-1.283-.355l.818-.473c.255-.147.415-.325.481-.534.064-.212.03-.431-.1-.66-.135-.232-.307-.376-.517-.432-.208-.058-.448-.008-.72.15l-.816.47.854 1.479zm7.19-2.004l-1.78 1.027.248 1.21-1.08.624-1.01-5.985.94-.543 4.688 3.862-1.08.623-.927-.818zm-1.98.047l1.23-.71-1.683-1.487.452 2.197zm8.52-2.47l-1.014.585-3.847-2.1 1.871 3.241-1.015.586-2.843-4.926 1.015-.585 3.854 2.105-1.875-3.248 1.011-.584 2.844 4.925zm2.194-6.738l-1.51.871 2.37 4.104-1.015.586-2.37-4.104-1.488.86-.474-.822 4.012-2.317.474.822zm3.21.01l-.257-2.811 1.11-.64.195 4.072 1.032 1.786-1.032.596-1.031-1.786-3.43-2.206 1.113-.643 2.3 1.632zm14.208-6.489l-1.36-3.888 1.01-.584 1.752 5.556-1.022.59-2.704-2.832 1.1 3.758-1.02.59-3.937-4.295 1.011-.584 2.686 3.113-1.207-3.966.859-.496 2.832 3.038zm5.161-2.44l-1.78 1.028.249 1.21-1.08.623-1.01-5.984.94-.543 4.688 3.861-1.08.623-.927-.817zm-1.98.048l1.232-.711-1.684-1.486.452 2.197zm5.299-3.014l-.809.467 1.041 1.803-1.015.586-2.843-4.926 1.83-1.056c.582-.336 1.105-.466 1.57-.389.466.077.836.353 1.11.826.193.336.282.66.266.97-.016.306-.133.611-.351.915l2.227 1.398.028.047-1.09.629-1.964-1.27zm-1.283-.355l.818-.473c.255-.147.415-.325.481-.535.064-.211.03-.43-.1-.659-.135-.232-.307-.376-.517-.432-.207-.058-.448-.008-.72.15l-.816.47.854 1.479zm5.777-2.24l-.809.467 1.041 1.803-1.014.586-2.844-4.925 1.83-1.057c.582-.336 1.105-.465 1.571-.388.466.077.835.352 1.108.826.194.336.283.659.267.969-.016.306-.133.612-.351.915l2.227 1.398.028.047-1.09.63-1.964-1.27zm-1.283-.355l.819-.473c.254-.147.415-.325.48-.534.064-.212.03-.431-.1-.66-.135-.232-.307-.376-.517-.432-.207-.058-.447-.008-.72.15l-.816.47.854 1.479zm7.19-2.004l-1.78 1.027.248 1.21-1.08.624-1.01-5.985.94-.542 4.688 3.86-1.079.624-.927-.818zm-1.98.047l1.23-.71-1.683-1.487.453 2.197zm8.521-2.47l-1.015.585-3.847-2.1 1.872 3.241-1.015.586-2.844-4.926 1.015-.585 3.854 2.105-1.875-3.248 1.011-.584 2.844 4.925zm2.193-6.738l-1.51.871 2.37 4.104-1.015.586L98.875.278l-1.489.86-.474-.822 4.012-2.317.475.822zm3.21.01l-.256-2.811 1.109-.64.196 4.072 1.031 1.786-1.032.596-1.031-1.786-3.43-2.206 1.113-.643 2.3 1.632z"/>
    <path opacity=".1" d="M-16.283 70.342l-1.36-3.888 1.012-.584 1.75 5.556-1.021.59-2.704-2.832 1.1 3.758-1.021.59-3.937-4.295 1.012-.584 2.686 3.113-1.208-3.966.86-.496 2.831 3.038zm5.162-2.44l-1.78 1.028.248 1.21-1.079.623-1.01-5.984.94-.543 4.688 3.861-1.08.623-.927-.817zm-1.98.048l1.231-.711-1.683-1.486.452 2.197zm5.298-3.014l-.808.467 1.04 1.803-1.014.586-2.844-4.926 1.83-1.056c.582-.336 1.106-.466 1.571-.389.466.077.835.353 1.109.826.194.336.283.66.266.97-.015.306-.132.611-.35.915l2.227 1.397.027.048-1.089.629-1.965-1.27zm-1.283-.355l.819-.473c.255-.147.415-.325.48-.535.065-.211.031-.43-.1-.659-.134-.232-.306-.376-.516-.432-.208-.058-.448-.008-.72.15l-.816.47.853 1.479zm5.778-2.24l-.809.467 1.041 1.803-1.015.586-2.844-4.925 1.83-1.057c.582-.336 1.106-.466 1.572-.388.465.077.835.352 1.108.826.194.336.283.659.266.969-.015.306-.132.612-.35.915l2.227 1.398.027.047-1.089.63-1.964-1.27zm-1.284-.355l.82-.473c.254-.147.414-.325.48-.534.064-.212.03-.431-.101-.66-.134-.232-.306-.376-.516-.432-.208-.058-.448-.008-.72.15l-.816.47.853 1.479zm7.19-2.004l-1.78 1.027.248 1.21-1.079.624-1.01-5.985.94-.542 4.688 3.86-1.08.624-.927-.818zm-1.98.047l1.231-.71-1.683-1.487.452 2.197zm8.522-2.47l-1.015.585-3.847-2.1 1.871 3.241-1.015.586-2.844-4.926 1.015-.586 3.854 2.105-1.875-3.247 1.012-.584 2.844 4.925zm2.192-6.738l-1.509.871 2.37 4.104-1.015.586-2.37-4.104-1.488.86-.474-.822 4.012-2.317.474.822zm3.21.01l-.256-2.811 1.11-.64.195 4.072 1.031 1.786-1.031.596-1.032-1.786-3.43-2.206 1.114-.643 2.3 1.632zm14.208-6.489l-1.36-3.888 1.012-.584 1.75 5.556-1.02.59-2.705-2.832 1.1 3.758-1.021.59-3.936-4.295 1.011-.584 2.686 3.113-1.208-3.966.86-.496 2.832 3.038zm5.162-2.44l-1.78 1.028.248 1.21-1.079.623-1.01-5.984.94-.543 4.688 3.861-1.08.623-.927-.817zm-1.98.048l1.232-.711-1.684-1.486.452 2.197zm5.299-3.014l-.809.467 1.041 1.803-1.015.586-2.843-4.926 1.83-1.056c.581-.336 1.105-.466 1.57-.389.466.077.836.353 1.109.826.194.336.283.66.267.97-.016.306-.133.611-.352.915l2.228 1.398.028.047-1.09.629-1.964-1.27zm-1.284-.355l.82-.473c.254-.147.414-.325.48-.535.064-.211.03-.43-.101-.659-.134-.232-.306-.376-.516-.432-.208-.058-.448-.008-.72.15l-.816.47.853 1.479zm5.778-2.24l-.809.467 1.041 1.803-1.015.586-2.843-4.925 1.83-1.057c.582-.336 1.105-.466 1.57-.388.466.077.836.352 1.11.826.193.336.282.659.266.969-.016.306-.133.612-.352.915l2.228 1.398.028.047-1.09.63-1.964-1.27zm-1.283-.355l.818-.473c.255-.147.415-.325.481-.534.064-.212.03-.431-.1-.66-.135-.232-.307-.376-.517-.432-.208-.058-.448-.008-.72.15l-.816.47.854 1.479zm7.19-2.004l-1.78 1.027.248 1.21-1.08.624-1.01-5.985.94-.543 4.688 3.862-1.08.623-.927-.818zm-1.98.047l1.23-.71-1.683-1.487.452 2.197zm8.52-2.47l-1.014.585-3.847-2.1 1.871 3.241-1.015.586-2.843-4.926 1.015-.585 3.854 2.105-1.875-3.248 1.011-.584 2.844 4.925zm2.194-6.738l-1.51.871 2.37 4.104-1.015.586-2.37-4.104-1.488.86-.474-.822 4.012-2.317.474.822zm3.21.01l-.257-2.811 1.11-.64.195 4.072 1.032 1.786-1.032.596-1.031-1.786-3.43-2.206 1.113-.643 2.3 1.632zm14.208-6.489l-1.36-3.888 1.01-.584 1.752 5.556-1.022.59-2.704-2.832 1.1 3.758-1.02.59-3.937-4.295 1.011-.584 2.686 3.113-1.207-3.966.859-.496 2.832 3.038zm5.161-2.44l-1.78 1.028.249 1.21-1.08.623-1.01-5.984.94-.543 4.688 3.861-1.08.623-.927-.817zm-1.98.048l1.232-.711-1.684-1.486.452 2.197zm5.299-3.014l-.809.467 1.041 1.803-1.015.586-2.843-4.926 1.83-1.056c.582-.336 1.105-.466 1.57-.389.466.077.836.353 1.11.826.193.336.282.66.266.97-.016.306-.133.611-.351.915l2.227 1.398.028.047-1.09.629-1.964-1.27zm-1.283-.355l.818-.473c.255-.147.415-.325.481-.535.064-.211.03-.43-.1-.659-.135-.232-.307-.376-.517-.432-.207-.058-.448-.008-.72.15l-.816.47.854 1.479zm5.777-2.24l-.809.467 1.041 1.803-1.014.586-2.844-4.925 1.83-1.057c.582-.336 1.105-.465 1.571-.388.466.077.835.352 1.108.826.194.336.283.659.267.969-.016.306-.133.612-.351.915l2.227 1.398.028.047-1.09.63-1.964-1.27zm-1.283-.355l.819-.473c.254-.147.415-.325.48-.534.064-.212.03-.431-.1-.66-.135-.232-.307-.376-.517-.432-.207-.058-.447-.008-.72.15l-.816.47.854 1.479zm7.19-2.004l-1.78 1.027.248 1.21-1.08.624-1.01-5.985.94-.542 4.688 3.86-1.079.624-.927-.818zm-1.98.047l1.23-.71-1.683-1.487.453 2.197zm8.521-2.47l-1.015.585-3.847-2.1 1.872 3.241-1.015.586-2.844-4.926 1.015-.585 3.854 2.105-1.875-3.248 1.011-.584 2.844 4.925zm2.193-6.738l-1.51.871 2.37 4.104-1.015.586L98.875.278l-1.489.86-.474-.822 4.012-2.317.475.822zm3.21.01l-.256-2.811 1.109-.64.196 4.072 1.031 1.786-1.032.596-1.031-1.786-3.43-2.206 1.113-.643 2.3 1.632zM40.306 64.356l-1.36-3.887 1.011-.584 1.751 5.556-1.021.59-2.704-2.832 1.1 3.758-1.021.59-3.937-4.295 1.012-.584 2.686 3.113-1.208-3.967.86-.496 2.831 3.038zm5.162-2.438l-1.78 1.027.248 1.21-1.08.623-1.01-5.984.941-.543 4.688 3.861-1.08.623-.927-.818zm-1.98.047l1.231-.711-1.683-1.487.452 2.198zm5.298-3.014l-.808.466 1.04 1.803-1.014.586-2.844-4.925 1.83-1.057c.582-.336 1.106-.465 1.571-.388.466.077.835.352 1.109.826.194.336.282.66.266.97-.015.306-.132.611-.35.915l2.227 1.397.027.048-1.09.629-1.964-1.27zm-1.283-.356l.819-.472c.255-.148.415-.326.48-.535.065-.212.031-.431-.1-.659-.134-.232-.306-.377-.516-.433-.208-.057-.448-.007-.721.15l-.815.471.853 1.478zm5.777-2.24l-.808.468 1.04 1.803-1.014.586-2.844-4.926 1.83-1.056c.582-.336 1.106-.466 1.572-.389.465.077.834.353 1.108.826.194.336.283.66.266.97-.015.306-.132.611-.35.915l2.227 1.398.027.047-1.089.629-1.965-1.27zm-1.283-.354l.819-.473c.255-.147.415-.325.48-.535.065-.211.031-.43-.1-.659-.134-.232-.306-.376-.516-.432-.208-.058-.448-.008-.72.15l-.816.47.853 1.479zm7.19-2.004l-1.78 1.027.248 1.21-1.079.623-1.01-5.984.94-.543 4.688 3.861-1.08.623-.927-.817zm-1.98.047l1.231-.711-1.683-1.486.452 2.197zm8.521-2.47l-1.014.585-3.847-2.1 1.871 3.24-1.015.587-2.844-4.926 1.015-.586 3.854 2.105-1.875-3.247 1.012-.584 2.843 4.925zm2.193-6.738l-1.509.871 2.37 4.103-1.015.586-2.37-4.103-1.488.86-.475-.823 4.013-2.316.474.822zm3.21.01l-.256-2.812 1.11-.64.195 4.073 1.031 1.786-1.031.596-1.032-1.787-3.43-2.205 1.114-.643 2.3 1.631zm14.209-6.49l-1.36-3.887 1.01-.584 1.752 5.556-1.022.59-2.704-2.832 1.1 3.758-1.021.59-3.937-4.295 1.012-.584 2.686 3.113-1.208-3.967.86-.496 2.832 3.038zm5.161-2.439l-1.78 1.028.248 1.21-1.079.623-1.01-5.984.94-.543 4.688 3.861-1.08.623-.927-.818zm-1.98.048l1.231-.711-1.683-1.487.452 2.198zm5.299-3.014l-.809.466 1.041 1.803-1.015.586-2.844-4.925 1.83-1.057c.582-.336 1.106-.465 1.572-.388.465.077.835.352 1.108.826.194.336.283.66.266.97-.015.306-.132.611-.35.915l2.227 1.397.027.048-1.089.629-1.965-1.27zm-1.284-.356l.819-.472c.255-.147.415-.326.48-.535.065-.212.031-.431-.1-.659-.134-.232-.306-.377-.516-.433-.208-.057-.448-.007-.72.15l-.816.471.853 1.478zm5.778-2.24l-.809.468 1.041 1.803-1.015.586-2.844-4.926 1.83-1.056c.583-.336 1.106-.466 1.572-.389.465.077.835.353 1.108.826.194.336.283.66.266.97-.015.306-.132.611-.35.915l2.227 1.398.027.047-1.089.629-1.964-1.27zm-1.283-.354l.818-.473c.255-.147.415-.325.48-.535.065-.211.032-.43-.1-.659-.134-.232-.306-.376-.516-.432-.208-.058-.448-.008-.72.15l-.816.47.853 1.479zm7.189-2.004l-1.779 1.027.247 1.21-1.079.623-1.01-5.984.941-.543 4.687 3.861-1.079.623-.928-.817zm-1.98.047l1.232-.711-1.684-1.486.452 2.197zm8.522-2.47l-1.015.585-3.847-2.1 1.871 3.24-1.015.587-2.843-4.926 1.014-.586 3.854 2.105-1.875-3.247 1.012-.584 2.844 4.925zm2.192-6.738l-1.508.871 2.369 4.104-1.015.585-2.369-4.103-1.489.86-.474-.823 4.012-2.316.474.822zm3.21.01l-.256-2.812 1.11-.64.195 4.073 1.032 1.786-1.032.596-1.031-1.787-3.43-2.205 1.113-.643 2.299 1.631zm14.209-6.49l-1.36-3.887 1.011-.584 1.751 5.556-1.021.59-2.704-2.832 1.1 3.758-1.021.59-3.937-4.295 1.012-.584 2.686 3.113-1.208-3.967.859-.496 2.832 3.038zm5.162-2.439l-1.78 1.028.248 1.21-1.079.623-1.01-5.984.94-.543 4.687 3.861-1.079.623-.927-.818zm-1.98.048l1.231-.711-1.683-1.487.452 2.198zm5.298-3.014l-.808.466 1.041 1.803-1.015.586-2.844-4.925 1.83-1.057c.582-.336 1.106-.465 1.571-.388.466.077.835.352 1.109.826.194.336.282.66.266.97-.015.306-.132.611-.351.915l2.228 1.397.027.048-1.089.628-1.965-1.27zm-1.283-.356l.819-.472c.255-.147.415-.326.48-.535.065-.211.031-.431-.1-.659-.135-.232-.307-.377-.516-.433-.208-.057-.448-.007-.721.15l-.815.471.853 1.478zm5.777-2.24l-.808.468 1.041 1.803-1.015.586-2.844-4.926 1.83-1.056c.582-.336 1.106-.466 1.571-.389.466.077.835.353 1.109.826.194.336.283.66.266.97-.015.306-.132.611-.351.915l2.228 1.397.027.048-1.089.629-1.965-1.27zm-1.283-.354l.819-.473c.255-.147.415-.325.481-.535.064-.211.03-.43-.101-.659-.134-.232-.306-.376-.516-.432-.208-.058-.448-.008-.721.15l-.815.47.853 1.479zm7.19-2.004l-1.78 1.027.248 1.21-1.079.623-1.01-5.984.94-.543 4.688 3.861-1.08.623-.927-.817zm-1.98.047l1.231-.711-1.683-1.486.452 2.197zm8.521-2.47l-1.015.585-3.846-2.1 1.871 3.24-1.015.587-2.844-4.926 1.015-.586 3.854 2.105-1.875-3.247 1.012-.584 2.843 4.925zm2.193-6.738l-1.509.871 2.369 4.103-1.014.586-2.37-4.103-1.488.86-.475-.823 4.012-2.316.475.822zm3.21.01l-.256-2.812 1.11-.64.195 4.073 1.031 1.786-1.032.596-1.031-1.787-3.429-2.205 1.113-.643 2.299 1.631zM-10.233 26.82l-1.36-3.888 1.01-.584 1.752 5.556-1.022.59-2.704-2.832 1.1 3.758-1.02.59-3.937-4.295 1.011-.584 2.686 3.113-1.207-3.967.859-.496 2.832 3.038zm5.161-2.44l-1.78 1.028.248 1.21-1.079.623-1.01-5.984.94-.543 4.688 3.86-1.08.624-.927-.818zm-1.98.047l1.232-.71-1.684-1.487.452 2.197zm5.299-3.014l-.809.467 1.041 1.803-1.015.586-2.843-4.925 1.83-1.057c.582-.336 1.105-.465 1.57-.388.466.077.836.352 1.11.826.193.336.282.659.266.97-.016.306-.133.61-.351.915l2.227 1.397.028.047-1.09.63-1.964-1.27zm-1.283-.355l.818-.472c.255-.148.415-.326.481-.535.064-.212.03-.431-.1-.659-.135-.232-.307-.377-.517-.433-.207-.057-.448-.007-.72.15l-.816.47.854 1.48zm5.777-2.24l-.809.468 1.041 1.803-1.015.586-2.843-4.926 1.83-1.057c.582-.335 1.105-.465 1.57-.388.466.077.836.352 1.11.826.193.336.282.66.266.97-.016.306-.133.611-.351.915l2.227 1.397.028.048-1.09.629-1.964-1.27zm-1.283-.355l.818-.472c.255-.147.415-.325.481-.535.064-.211.03-.431-.1-.659-.135-.232-.307-.376-.517-.433-.207-.057-.448-.007-.72.15l-.816.471.854 1.479zm7.19-2.003l-1.78 1.027.248 1.21-1.08.623-1.01-5.984.94-.543 4.688 3.861-1.079.623-.928-.817zm-1.98.047l1.23-.711-1.683-1.486.452 2.197zm8.52-2.471l-1.014.586-3.847-2.1 1.871 3.24-1.014.587-2.844-4.926 1.015-.586 3.854 2.105-1.875-3.248 1.011-.584 2.844 4.926zm2.194-6.737l-1.51.87 2.37 4.104-1.015.586-2.37-4.103-1.488.86-.474-.823 4.012-2.316.475.822zm3.21.01l-.256-2.812 1.11-.64.194 4.073 1.032 1.786-1.032.596-1.031-1.787-3.43-2.205 1.113-.643 2.3 1.631zM34.8.82l-1.36-3.888 1.011-.584 1.751 5.556-1.021.59-2.705-2.832 1.101 3.758-1.022.59L28.62-.286l1.01-.584 2.686 3.113-1.207-3.967.859-.496L34.8.82zm5.161-2.44L38.182-.592l.248 1.21-1.08.623-1.01-5.984.94-.543 4.688 3.86-1.079.624-.928-.818zm-1.98.047l1.232-.71-1.684-1.487.452 2.197zm5.299-3.014l-.809.467 1.041 1.803-1.014.586-2.844-4.925 1.83-1.057c.582-.336 1.105-.465 1.571-.388.465.077.835.352 1.108.826.194.336.283.659.267.97-.016.306-.133.61-.351.914l2.227 1.398.028.047-1.09.63-1.964-1.27zm-1.283-.355l.819-.472c.254-.148.414-.326.48-.535.065-.212.03-.431-.1-.66-.135-.231-.307-.376-.517-.432-.207-.057-.448-.007-.72.15l-.816.47.854 1.48zm5.777-2.24l-.808.468 1.04 1.803-1.014.586-2.844-4.926 1.83-1.057c.582-.335 1.106-.465 1.571-.388.466.077.835.352 1.108.826.195.336.283.66.267.97-.016.306-.133.611-.351.915L50.8-6.588l.027.048-1.09.629-1.964-1.27zm-1.283-.354l.819-.473c.255-.147.415-.325.48-.535.065-.211.031-.43-.1-.659-.135-.232-.307-.376-.517-.433-.207-.057-.447-.007-.72.15l-.816.471.854 1.479zm7.19-2.004L51.9-8.513l.248 1.21-1.08.623-1.01-5.984.941-.543 4.687 3.861-1.079.623-.927-.817zm-1.98.047l1.231-.711-1.684-1.486.453 2.197zm8.521-2.471l-1.015.586-3.846-2.1 1.87 3.24-1.014.587-2.844-4.926 1.015-.586 3.854 2.105-1.875-3.247 1.011-.585 2.844 4.926zm2.193-6.737l-1.509.87 2.37 4.104-1.016.586-2.369-4.103-1.488.86-.475-.823 4.012-2.316.475.822zm3.21.01l-.256-2.812 1.11-.64.195 4.073 1.031 1.786-1.032.595-1.031-1.786-3.43-2.205 1.113-.643 2.3 1.631z"/>
    <path opacity=".1" d="M-10.233 26.82l-1.36-3.888 1.01-.584 1.752 5.556-1.022.59-2.704-2.832 1.1 3.758-1.02.59-3.937-4.295 1.011-.584 2.686 3.113-1.207-3.967.859-.496 2.832 3.038zm5.161-2.44l-1.78 1.028.248 1.21-1.079.623-1.01-5.984.94-.543 4.688 3.86-1.08.624-.927-.818zm-1.98.047l1.232-.71-1.684-1.487.452 2.197zm5.299-3.014l-.809.467 1.041 1.803-1.015.586-2.843-4.925 1.83-1.057c.582-.336 1.105-.465 1.57-.388.466.077.836.352 1.11.826.193.336.282.659.266.97-.016.306-.133.61-.351.915l2.227 1.397.028.047-1.09.63-1.964-1.27zm-1.283-.355l.818-.472c.255-.148.415-.326.481-.535.064-.212.03-.431-.1-.659-.135-.232-.307-.377-.517-.433-.207-.057-.448-.007-.72.15l-.816.47.854 1.48zm5.777-2.24l-.809.468 1.041 1.803-1.015.586-2.843-4.926 1.83-1.057c.582-.335 1.105-.465 1.57-.388.466.077.836.352 1.11.826.193.336.282.66.266.97-.016.306-.133.611-.351.915l2.227 1.397.028.048-1.09.629-1.964-1.27zm-1.283-.355l.818-.472c.255-.147.415-.325.481-.535.064-.211.03-.431-.1-.659-.135-.232-.307-.376-.517-.433-.207-.057-.448-.007-.72.15l-.816.471.854 1.479zm7.19-2.003l-1.78 1.027.248 1.21-1.08.623-1.01-5.984.94-.543 4.688 3.861-1.079.623-.928-.817zm-1.98.047l1.23-.711-1.683-1.486.452 2.197zm8.52-2.471l-1.014.586-3.847-2.1 1.871 3.24-1.014.587-2.844-4.926 1.015-.586 3.854 2.105-1.875-3.248 1.011-.584 2.844 4.926zm2.194-6.737l-1.51.87 2.37 4.104-1.015.586-2.37-4.103-1.488.86-.474-.823 4.012-2.316.475.822zm3.21.01l-.256-2.812 1.11-.64.194 4.073 1.032 1.786-1.032.596-1.031-1.787-3.43-2.205 1.113-.643 2.3 1.631zM34.8.82l-1.36-3.888 1.011-.584 1.751 5.556-1.021.59-2.705-2.832 1.101 3.758-1.022.59L28.62-.286l1.01-.584 2.686 3.113-1.207-3.967.859-.496L34.8.82zm5.161-2.44L38.182-.592l.248 1.21-1.08.623-1.01-5.984.94-.543 4.688 3.86-1.079.624-.928-.818zm-1.98.047l1.232-.71-1.684-1.487.452 2.197zm5.299-3.014l-.809.467 1.041 1.803-1.014.586-2.844-4.925 1.83-1.057c.582-.336 1.105-.465 1.571-.388.465.077.835.352 1.108.826.194.336.283.659.267.97-.016.306-.133.61-.351.914l2.227 1.398.028.047-1.09.63-1.964-1.27zm-1.283-.355l.819-.472c.254-.148.414-.326.48-.535.065-.212.03-.431-.1-.66-.135-.231-.307-.376-.517-.432-.207-.057-.448-.007-.72.15l-.816.47.854 1.48zm5.777-2.24l-.808.468 1.04 1.803-1.014.586-2.844-4.926 1.83-1.057c.582-.335 1.106-.465 1.571-.388.466.077.835.352 1.108.826.195.336.283.66.267.97-.016.306-.133.611-.351.915L50.8-6.588l.027.048-1.09.629-1.964-1.27zm-1.283-.354l.819-.473c.255-.147.415-.325.48-.535.065-.211.031-.43-.1-.659-.135-.232-.307-.376-.517-.433-.207-.057-.447-.007-.72.15l-.816.471.854 1.479zm7.19-2.004L51.9-8.513l.248 1.21-1.08.623-1.01-5.984.941-.543 4.687 3.861-1.079.623-.927-.817zm-1.98.047l1.231-.711-1.684-1.486.453 2.197zm8.521-2.471l-1.015.586-3.846-2.1 1.87 3.24-1.014.587-2.844-4.926 1.015-.586 3.854 2.105-1.875-3.247 1.011-.585 2.844 4.926zm2.193-6.737l-1.509.87 2.37 4.104-1.016.586-2.369-4.103-1.488.86-.475-.823 4.012-2.316.475.822zm3.21.01l-.256-2.812 1.11-.64.195 4.073 1.031 1.786-1.032.595-1.031-1.786-3.43-2.205 1.113-.643 2.3 1.631z"/>
    <path opacity=".1" d="M-10.233 26.82l-1.36-3.888 1.01-.584 1.752 5.556-1.022.59-2.704-2.832 1.1 3.758-1.02.59-3.937-4.295 1.011-.584 2.686 3.113-1.207-3.967.859-.496 2.832 3.038zm5.161-2.44l-1.78 1.028.248 1.21-1.079.623-1.01-5.984.94-.543 4.688 3.86-1.08.624-.927-.818zm-1.98.047l1.232-.71-1.684-1.487.452 2.197zm5.299-3.014l-.809.467 1.041 1.803-1.015.586-2.843-4.925 1.83-1.057c.582-.336 1.105-.465 1.57-.388.466.077.836.352 1.11.826.193.336.282.659.266.97-.016.306-.133.61-.351.915l2.227 1.397.028.047-1.09.63-1.964-1.27zm-1.283-.355l.818-.472c.255-.148.415-.326.481-.535.064-.212.03-.431-.1-.659-.135-.232-.307-.377-.517-.433-.207-.057-.448-.007-.72.15l-.816.47.854 1.48zm5.777-2.24l-.809.468 1.041 1.803-1.015.586-2.843-4.926 1.83-1.057c.582-.335 1.105-.465 1.57-.388.466.077.836.352 1.11.826.193.336.282.66.266.97-.016.306-.133.611-.351.915l2.227 1.397.028.048-1.09.629-1.964-1.27zm-1.283-.355l.818-.472c.255-.147.415-.325.481-.535.064-.211.03-.431-.1-.659-.135-.232-.307-.376-.517-.433-.207-.057-.448-.007-.72.15l-.816.471.854 1.479zm7.19-2.003l-1.78 1.027.248 1.21-1.08.623-1.01-5.984.94-.543 4.688 3.861-1.079.623-.928-.817zm-1.98.047l1.23-.711-1.683-1.486.452 2.197zm8.52-2.471l-1.014.586-3.847-2.1 1.871 3.24-1.014.587-2.844-4.926 1.015-.586 3.854 2.105-1.875-3.248 1.011-.584 2.844 4.926zm2.194-6.737l-1.51.87 2.37 4.104-1.015.586-2.37-4.103-1.488.86-.474-.823 4.012-2.316.475.822zm3.21.01l-.256-2.812 1.11-.64.194 4.073 1.032 1.786-1.032.596-1.031-1.787-3.43-2.205 1.113-.643 2.3 1.631zM34.8.82l-1.36-3.888 1.011-.584 1.751 5.556-1.021.59-2.705-2.832 1.101 3.758-1.022.59L28.62-.286l1.01-.584 2.686 3.113-1.207-3.967.859-.496L34.8.82zm5.161-2.44L38.182-.592l.248 1.21-1.08.623-1.01-5.984.94-.543 4.688 3.86-1.079.624-.928-.818zm-1.98.047l1.232-.71-1.684-1.487.452 2.197zm5.299-3.014l-.809.467 1.041 1.803-1.014.586-2.844-4.925 1.83-1.057c.582-.336 1.105-.465 1.571-.388.465.077.835.352 1.108.826.194.336.283.659.267.97-.016.306-.133.61-.351.914l2.227 1.398.028.047-1.09.63-1.964-1.27zm-1.283-.355l.819-.472c.254-.148.414-.326.48-.535.065-.212.03-.431-.1-.66-.135-.231-.307-.376-.517-.432-.207-.057-.448-.007-.72.15l-.816.47.854 1.48zm5.777-2.24l-.808.468 1.04 1.803-1.014.586-2.844-4.926 1.83-1.057c.582-.335 1.106-.465 1.571-.388.466.077.835.352 1.108.826.195.336.283.66.267.97-.016.306-.133.611-.351.915L50.8-6.588l.027.048-1.09.629-1.964-1.27zm-1.283-.354l.819-.473c.255-.147.415-.325.48-.535.065-.211.031-.43-.1-.659-.135-.232-.307-.376-.517-.433-.207-.057-.447-.007-.72.15l-.816.471.854 1.479zm7.19-2.004L51.9-8.513l.248 1.21-1.08.623-1.01-5.984.941-.543 4.687 3.861-1.079.623-.927-.817zm-1.98.047l1.231-.711-1.684-1.486.453 2.197zm8.521-2.471l-1.015.586-3.846-2.1 1.87 3.24-1.014.587-2.844-4.926 1.015-.586 3.854 2.105-1.875-3.247 1.011-.585 2.844 4.926zm2.193-6.737l-1.509.87 2.37 4.104-1.016.586-2.369-4.103-1.488.86-.475-.823 4.012-2.316.475.822zm3.21.01l-.256-2.812 1.11-.64.195 4.073 1.031 1.786-1.032.595-1.031-1.786-3.43-2.205 1.113-.643 2.3 1.631zM1.322 46.834l-1.36-3.888 1.011-.584 1.752 5.557-1.022.59-2.704-2.833 1.1 3.758-1.021.59-3.937-4.295 1.012-.584 2.686 3.114-1.208-3.967.86-.496 2.831 3.038zm5.162-2.439l-1.78 1.027.248 1.21-1.079.624-1.01-5.984.94-.544 4.688 3.862-1.08.623-.927-.818zm-1.98.047l1.231-.71-1.683-1.487.452 2.197zm5.298-3.014l-.808.467 1.04 1.803-1.014.586-2.844-4.926 1.83-1.056c.582-.336 1.106-.466 1.571-.389.466.078.835.353 1.109.827.194.335.283.659.266.969-.015.306-.132.611-.35.915l2.227 1.398.027.047-1.09.629-1.964-1.27zm-1.283-.355l.819-.473c.255-.147.415-.325.48-.534.065-.212.031-.432-.1-.66-.134-.232-.306-.376-.516-.432-.208-.058-.448-.008-.721.15l-.815.47.853 1.479zm5.777-2.24l-.808.467 1.041 1.803-1.015.586-2.844-4.925 1.83-1.057c.582-.336 1.106-.465 1.572-.388.465.077.835.352 1.108.826.194.336.283.659.266.97-.015.306-.132.61-.35.914l2.227 1.398.027.047-1.089.63-1.964-1.27zm-1.283-.355l.82-.473c.254-.147.414-.325.48-.534.064-.212.03-.431-.101-.66-.134-.231-.306-.376-.516-.432-.208-.057-.448-.007-.72.15l-.816.47.853 1.48zm7.19-2.004l-1.78 1.028.248 1.21-1.079.623-1.01-5.984.94-.543 4.688 3.86-1.08.624-.927-.818zm-1.98.047l1.232-.71-1.684-1.487.452 2.197zm8.522-2.47l-1.015.586-3.847-2.1 1.871 3.24-1.015.586-2.844-4.925 1.015-.586 3.854 2.105-1.875-3.248 1.012-.584 2.844 4.926zm2.192-6.738l-1.509.872 2.37 4.103-1.015.586-2.37-4.104-1.488.86-.474-.822 4.012-2.317.474.822zm3.21.01l-.256-2.811 1.11-.64.195 4.072 1.032 1.786-1.032.596-1.032-1.786-3.43-2.206 1.114-.642 2.3 1.63zm14.209-6.489l-1.36-3.888 1.01-.584 1.752 5.557-1.022.59-2.704-2.833 1.1 3.758-1.021.59-3.936-4.295 1.011-.584 2.686 3.114-1.208-3.967.86-.496 2.832 3.038zm5.161-2.439l-1.78 1.027.248 1.21-1.079.624-1.01-5.985.94-.543 4.688 3.862-1.08.623-.927-.818zm-1.98.047l1.232-.71-1.684-1.487.452 2.197zm5.299-3.014l-.809.467 1.041 1.803-1.015.586-2.843-4.926 1.83-1.056c.581-.336 1.105-.466 1.57-.388.466.077.836.352 1.109.825.194.336.283.66.267.97-.016.306-.133.611-.352.915l2.228 1.398.027.047-1.089.629-1.964-1.27zm-1.283-.355l.818-.473c.255-.147.415-.325.48-.534.065-.212.032-.432-.1-.66-.134-.232-.306-.376-.516-.432-.208-.058-.448-.008-.72.15l-.816.47.854 1.479zm5.777-2.24l-.809.467 1.041 1.803-1.015.586-2.843-4.925 1.83-1.057c.582-.336 1.105-.465 1.57-.388.466.077.836.352 1.11.826.193.336.282.659.266.97-.016.306-.133.61-.351.914l2.227 1.398.028.047-1.09.63-1.964-1.27zm-1.283-.355l.818-.473c.255-.147.415-.325.481-.534.064-.212.03-.431-.1-.66-.135-.231-.307-.376-.517-.432-.207-.057-.448-.007-.72.15l-.816.47.854 1.48zm7.19-2.004l-1.78 1.028.248 1.21-1.08.623-1.01-5.984.94-.543 4.688 3.86-1.08.624-.927-.818zm-1.98.047l1.23-.71-1.683-1.487.452 2.197zm8.52-2.47l-1.014.586-3.847-2.1 1.871 3.24-1.015.586-2.843-4.925 1.014-.586 3.855 2.105-1.876-3.248 1.012-.584 2.844 4.926zm2.193-6.738l-1.508.872 2.369 4.103-1.015.586-2.37-4.104-1.488.86-.474-.822L73.496.49l.474.822zm3.21.01l-.256-2.811 1.11-.64.195 4.072 1.032 1.786-1.032.596-1.031-1.786-3.43-2.206 1.113-.642 2.3 1.63z"/>
    <path opacity=".1" d="M1.322 46.834l-1.36-3.888 1.011-.584 1.752 5.557-1.022.59-2.704-2.833 1.1 3.758-1.021.59-3.937-4.295 1.012-.584 2.686 3.114-1.208-3.967.86-.496 2.831 3.038zm5.162-2.439l-1.78 1.027.248 1.21-1.079.624-1.01-5.984.94-.544 4.688 3.862-1.08.623-.927-.818zm-1.98.047l1.231-.71-1.683-1.487.452 2.197zm5.298-3.014l-.808.467 1.04 1.803-1.014.586-2.844-4.926 1.83-1.056c.582-.336 1.106-.466 1.571-.389.466.078.835.353 1.109.827.194.335.283.659.266.969-.015.306-.132.611-.35.915l2.227 1.398.027.047-1.09.629-1.964-1.27zm-1.283-.355l.819-.473c.255-.147.415-.325.48-.534.065-.212.031-.432-.1-.66-.134-.232-.306-.376-.516-.432-.208-.058-.448-.008-.721.15l-.815.47.853 1.479zm5.777-2.24l-.808.467 1.041 1.803-1.015.586-2.844-4.925 1.83-1.057c.582-.336 1.106-.465 1.572-.388.465.077.835.352 1.108.826.194.336.283.659.266.97-.015.306-.132.61-.35.914l2.227 1.398.027.047-1.089.63-1.964-1.27zm-1.283-.355l.82-.473c.254-.147.414-.325.48-.534.064-.212.03-.431-.101-.66-.134-.231-.306-.376-.516-.432-.208-.057-.448-.007-.72.15l-.816.47.853 1.48zm7.19-2.004l-1.78 1.028.248 1.21-1.079.623-1.01-5.984.94-.543 4.688 3.86-1.08.624-.927-.818zm-1.98.047l1.232-.71-1.684-1.487.452 2.197zm8.522-2.47l-1.015.586-3.847-2.1 1.871 3.24-1.015.586-2.844-4.925 1.015-.586 3.854 2.105-1.875-3.248 1.012-.584 2.844 4.926zm2.192-6.738l-1.509.872 2.37 4.103-1.015.586-2.37-4.104-1.488.86-.474-.822 4.012-2.317.474.822zm3.21.01l-.256-2.811 1.11-.64.195 4.072 1.032 1.786-1.032.596-1.032-1.786-3.43-2.206 1.114-.642 2.3 1.63zm14.209-6.489l-1.36-3.888 1.01-.584 1.752 5.557-1.022.59-2.704-2.833 1.1 3.758-1.021.59-3.936-4.295 1.011-.584 2.686 3.114-1.208-3.967.86-.496 2.832 3.038zm5.161-2.439l-1.78 1.027.248 1.21-1.079.624-1.01-5.985.94-.543 4.688 3.862-1.08.623-.927-.818zm-1.98.047l1.232-.71-1.684-1.487.452 2.197zm5.299-3.014l-.809.467 1.041 1.803-1.015.586-2.843-4.926 1.83-1.056c.581-.336 1.105-.466 1.57-.388.466.077.836.352 1.109.825.194.336.283.66.267.97-.016.306-.133.611-.352.915l2.228 1.398.027.047-1.089.629-1.964-1.27zm-1.283-.355l.818-.473c.255-.147.415-.325.48-.534.065-.212.032-.432-.1-.66-.134-.232-.306-.376-.516-.432-.208-.058-.448-.008-.72.15l-.816.47.854 1.479zm5.777-2.24l-.809.467 1.041 1.803-1.015.586-2.843-4.925 1.83-1.057c.582-.336 1.105-.465 1.57-.388.466.077.836.352 1.11.826.193.336.282.659.266.97-.016.306-.133.61-.351.914l2.227 1.398.028.047-1.09.63-1.964-1.27zm-1.283-.355l.818-.473c.255-.147.415-.325.481-.534.064-.212.03-.431-.1-.66-.135-.231-.307-.376-.517-.432-.207-.057-.448-.007-.72.15l-.816.47.854 1.48zm7.19-2.004l-1.78 1.028.248 1.21-1.08.623-1.01-5.984.94-.543 4.688 3.86-1.08.624-.927-.818zm-1.98.047l1.23-.71-1.683-1.487.452 2.197zm8.52-2.47l-1.014.586-3.847-2.1 1.871 3.24-1.015.586-2.843-4.925 1.014-.586 3.855 2.105-1.876-3.248 1.012-.584 2.844 4.926zm2.193-6.738l-1.508.872 2.369 4.103-1.015.586-2.37-4.104-1.488.86-.474-.822L73.496.49l.474.822zm3.21.01l-.256-2.811 1.11-.64.195 4.072 1.032 1.786-1.032.596-1.031-1.786-3.43-2.206 1.113-.642 2.3 1.63zM12.878 66.848l-1.36-3.887 1.011-.584 1.751 5.556-1.021.59-2.704-2.832 1.1 3.758-1.022.59-3.936-4.295 1.012-.584 2.686 3.113-1.208-3.966.86-.497 2.831 3.038zm5.162-2.438l-1.78 1.027.248 1.21-1.08.623-1.01-5.984.94-.543 4.688 3.861-1.079.623-.927-.817zm-1.98.047l1.23-.711-1.683-1.486.453 2.197zm5.298-3.014l-.809.467 1.042 1.803-1.015.586-2.844-4.926 1.83-1.057c.582-.336 1.106-.465 1.571-.388.466.077.835.353 1.108.826.195.336.283.66.267.97-.015.306-.133.611-.351.915l2.228 1.397.027.048-1.09.629-1.964-1.27zm-1.283-.355l.819-.473c.254-.147.415-.326.48-.535.065-.211.031-.431-.1-.659-.135-.232-.307-.376-.517-.432-.207-.058-.447-.008-.72.15l-.816.47.854 1.478zm5.777-2.24l-.808.467 1.04 1.803-1.014.586-2.844-4.926 1.83-1.056c.582-.336 1.106-.466 1.571-.389.466.078.835.353 1.109.826.194.337.282.66.266.97-.015.306-.132.611-.351.915l2.228 1.398.027.047-1.09.629-1.964-1.27zm-1.283-.355l.819-.473c.255-.147.415-.325.48-.535.065-.211.031-.43-.1-.658-.134-.233-.306-.377-.516-.433-.208-.058-.448-.008-.721.15l-.815.47.853 1.479zm7.19-2.004l-1.78 1.027.248 1.21-1.08.623-1.01-5.984.941-.543 4.688 3.861-1.08.623-.927-.817zm-1.98.047l1.231-.711-1.683-1.486.452 2.197zm8.521-2.47l-1.015.585-3.846-2.1 1.87 3.24-1.014.587-2.844-4.926 1.015-.586 3.854 2.105-1.875-3.247 1.011-.584 2.844 4.925zm2.193-6.738l-1.509.871 2.37 4.104-1.016.586-2.369-4.104-1.488.86-.475-.823 4.012-2.316.475.822zm3.21.01l-.256-2.811 1.11-.641.195 4.073 1.031 1.786-1.032.596-1.03-1.786-3.43-2.206 1.113-.643 2.299 1.632zm14.208-6.49l-1.36-3.887 1.011-.584 1.751 5.556-1.021.59-2.704-2.832 1.1 3.758-1.021.59-3.937-4.295 1.012-.584 2.686 3.113-1.208-3.966.86-.497 2.831 3.038zm5.162-2.438l-1.78 1.027.248 1.21-1.08.623-1.01-5.984.941-.543 4.687 3.861-1.079.623-.927-.817zm-1.98.047l1.231-.711-1.683-1.486.452 2.197zm5.298-3.014l-.808.467 1.04 1.803-1.014.586-2.844-4.926 1.83-1.057c.582-.336 1.106-.465 1.571-.388.466.077.835.353 1.109.826.194.336.282.66.266.97-.015.306-.132.611-.351.915l2.228 1.397.027.048-1.09.629-1.964-1.27zm-1.283-.355l.819-.473c.255-.147.415-.326.48-.535.065-.211.031-.431-.1-.659-.134-.232-.306-.376-.516-.432-.208-.058-.448-.008-.721.15l-.815.47.853 1.478zm5.777-2.24l-.808.467 1.04 1.803-1.014.586-2.844-4.926 1.83-1.056c.582-.336 1.106-.466 1.571-.389.466.078.835.353 1.109.826.194.337.283.66.266.97-.015.306-.132.611-.35.915l2.227 1.398.027.047-1.09.629-1.964-1.27zm-1.283-.355l.819-.473c.255-.147.415-.325.48-.535.065-.211.031-.43-.1-.658-.134-.233-.306-.377-.516-.433-.208-.058-.448-.008-.721.15l-.815.47.853 1.479zm7.19-2.004l-1.78 1.027.248 1.21-1.079.623-1.01-5.984.94-.543 4.688 3.861-1.08.623-.927-.817zm-1.98.047l1.231-.711-1.683-1.486.452 2.197zm8.522-2.47l-1.015.585-3.847-2.1 1.871 3.24-1.015.587-2.844-4.926 1.015-.586 3.854 2.105-1.875-3.247 1.012-.584 2.844 4.925zm2.192-6.738l-1.509.871 2.37 4.104-1.015.586-2.37-4.104-1.488.86-.475-.823 4.013-2.316.474.822zm3.21.01l-.256-2.811 1.11-.641.195 4.073 1.031 1.786-1.032.596-1.03-1.786-3.43-2.206 1.113-.643 2.3 1.632zm14.209-6.49l-1.36-3.887 1.011-.584 1.751 5.556-1.022.59-2.704-2.832 1.101 3.758-1.022.59-3.936-4.295 1.011-.584 2.686 3.113-1.207-3.966.859-.497 2.832 3.038zm5.161-2.438l-1.779 1.027.248 1.21-1.079.623-1.011-5.984.941-.543 4.687 3.861-1.079.623-.928-.817zm-1.98.047l1.232-.711-1.684-1.487.452 2.198zm5.299-3.014l-.809.467 1.041 1.803-1.014.586-2.844-4.926 1.83-1.057c.582-.336 1.106-.465 1.571-.388.465.077.835.353 1.108.826.194.336.283.66.267.97-.016.306-.133.611-.351.915l2.227 1.397.028.048-1.089.629-1.965-1.27zm-1.283-.355l.818-.473c.255-.147.416-.325.481-.535.064-.211.031-.431-.101-.659-.134-.232-.306-.376-.516-.433-.207-.057-.448-.007-.72.15l-.816.471.854 1.479zm5.777-2.24l-.808.467 1.041 1.803-1.015.586-2.844-4.926 1.83-1.056c.582-.336 1.106-.466 1.571-.389.466.077.835.353 1.108.826.195.336.283.66.267.97-.015.306-.133.611-.351.915l2.228 1.398.027.047-1.089.629-1.965-1.27zm-1.283-.355l.819-.473c.254-.147.415-.325.48-.534.065-.212.031-.432-.1-.66-.135-.232-.307-.376-.516-.432-.208-.058-.448-.008-.721.15l-.816.47.854 1.479zm7.19-2.004l-1.78 1.027.248 1.21-1.079.623-1.01-5.984.94-.543 4.687 3.861-1.079.623-.927-.817zm-1.98.047l1.231-.711-1.683-1.486.452 2.197zm8.521-2.47l-1.015.585-3.846-2.1 1.871 3.24-1.015.587-2.844-4.926 1.015-.586 3.854 2.105-1.875-3.247 1.011-.584 2.844 4.925zm2.193-6.738l-1.509.871L131.42.303l-1.015.586-2.369-4.104-1.488.86-.475-.823 4.012-2.316.475.822zm3.21.01l-.256-2.811 1.109-.641.196 4.073 1.031 1.786-1.032.596-1.031-1.786-3.43-2.206 1.113-.643 2.3 1.632zM69.467 60.864l-1.36-3.887 1.011-.584 1.751 5.556-1.022.59-2.704-2.832 1.101 3.758-1.022.59-3.936-4.295 1.011-.584 2.686 3.113-1.207-3.967.859-.496 2.832 3.038zm5.161-2.439l-1.779 1.028.248 1.21-1.08.623-1.01-5.984.94-.543 4.688 3.86-1.079.624-.928-.818zm-1.98.047l1.232-.71-1.684-1.487.452 2.197zm5.299-3.014l-.809.467 1.041 1.803-1.014.586-2.844-4.925 1.83-1.057c.582-.336 1.106-.465 1.571-.388.465.077.835.352 1.108.826.194.336.283.659.267.969-.016.307-.133.612-.351.915l2.227 1.398.028.047-1.09.63-1.964-1.27zm-1.283-.355l.819-.473c.254-.147.414-.325.48-.534.065-.212.03-.431-.1-.66-.135-.231-.307-.376-.517-.432-.207-.057-.448-.008-.72.15l-.816.47.854 1.48zm5.777-2.24l-.809.468 1.042 1.803-1.015.585-2.844-4.925 1.83-1.057c.582-.336 1.106-.465 1.571-.388.466.077.835.353 1.109.826.194.336.282.66.266.97-.015.306-.132.611-.351.915l2.228 1.397.027.048-1.09.629-1.964-1.27zm-1.283-.355l.819-.472c.254-.147.415-.326.48-.535.065-.211.031-.431-.1-.659-.135-.232-.307-.376-.516-.433-.208-.057-.448-.007-.721.15l-.816.471.854 1.478zm7.19-2.004l-1.78 1.028.248 1.21-1.08.623-1.01-5.984.941-.543 4.687 3.861-1.079.623-.927-.818zm-1.98.048l1.231-.711-1.684-1.487.453 2.198zm8.521-2.471l-1.015.586-3.846-2.1 1.87 3.24-1.014.586-2.844-4.925 1.015-.586 3.854 2.105-1.875-3.248 1.011-.584 2.844 4.926zm2.193-6.737l-1.509.87 2.37 4.104-1.016.586-2.369-4.103-1.488.86-.475-.823 4.012-2.316.475.822zm3.21.01l-.256-2.812 1.109-.64.196 4.072 1.031 1.787-1.032.595-1.031-1.786-3.43-2.206 1.113-.642 2.3 1.631zm14.209-6.49l-1.361-3.887 1.012-.585 1.751 5.557-1.022.59-2.704-2.832 1.101 3.758-1.022.59-3.936-4.295 1.011-.584 2.686 3.113-1.208-3.967.86-.496 2.832 3.038zm5.161-2.439l-1.779 1.028.247 1.21-1.079.623-1.01-5.984.94-.543 4.688 3.86-1.079.624-.928-.818zm-1.98.047l1.232-.71-1.684-1.487.452 2.197zm5.299-3.014l-.809.467 1.041 1.803-1.015.586-2.844-4.925 1.831-1.057c.582-.336 1.105-.465 1.571-.388.465.077.835.352 1.108.826.194.336.283.659.266.969-.015.307-.132.612-.351.915l2.228 1.398.027.047-1.089.63-1.964-1.27zm-1.284-.355l.819-.473c.255-.147.415-.325.481-.534.064-.212.031-.431-.101-.66-.134-.231-.306-.376-.516-.432-.208-.058-.448-.008-.721.15l-.815.47.853 1.48zm5.778-2.24l-.809.468 1.041 1.803-1.015.585-2.843-4.925 1.83-1.057c.582-.336 1.105-.465 1.571-.388.465.077.835.352 1.108.826.194.336.283.66.267.97-.016.306-.133.611-.351.915l2.227 1.397.028.048-1.09.629-1.964-1.27zm-1.283-.355l.818-.472c.255-.147.415-.326.481-.535.064-.211.031-.431-.101-.659-.134-.232-.306-.376-.516-.433-.207-.057-.448-.007-.721.15l-.815.471.854 1.478zm7.189-2.003l-1.779 1.027.248 1.21-1.08.623-1.01-5.984.941-.543 4.687 3.861-1.079.623-.928-.817zm-1.98.047l1.232-.711-1.684-1.487.452 2.198zm8.522-2.471l-1.015.586-3.847-2.1 1.871 3.24-1.015.586-2.843-4.925 1.015-.586 3.854 2.105-1.875-3.248 1.011-.584 2.844 4.926zm2.192-6.737l-1.508.87 2.369 4.104-1.015.586-2.369-4.103-1.489.86-.474-.823 4.012-2.316.474.822zm3.211.01l-.257-2.812 1.11-.64.195 4.073 1.032 1.786-1.032.595-1.031-1.786-3.43-2.206 1.113-.642 2.3 1.631zm14.208-6.49l-1.361-3.888 1.012-.583 1.751 5.556-1.022.59-2.704-2.832 1.101 3.757-1.022.59-3.936-4.294 1.011-.584 2.686 3.113-1.207-3.967.859-.496 2.832 3.038zm5.161-2.439l-1.779 1.028.248 1.21-1.08.623-1.01-5.984.941-.543 4.687 3.86-1.079.624-.928-.818zm-1.98.047l1.232-.71-1.684-1.487.452 2.197zm5.299-3.014l-.809.467 1.041 1.803-1.015.586-2.843-4.925 1.83-1.057c.582-.336 1.105-.465 1.571-.388.465.077.835.352 1.108.826.194.336.283.659.267.969-.016.307-.133.612-.351.915l2.227 1.398.028.047-1.09.63-1.964-1.27zm-1.283-.355l.818-.473c.255-.147.415-.325.481-.534.064-.212.031-.431-.101-.66-.134-.231-.306-.376-.516-.432-.207-.057-.448-.007-.721.15l-.815.47.854 1.48zm5.777-2.24l-.809.467 1.041 1.804-1.014.586-2.844-4.926 1.83-1.057c.582-.336 1.106-.465 1.571-.388.465.077.835.352 1.108.826.194.336.283.66.267.97-.016.306-.133.611-.351.915l2.227 1.397.028.048-1.089.629-1.965-1.27zm-1.283-.355l.818-.472c.255-.147.416-.326.481-.535.064-.211.031-.431-.101-.659-.134-.232-.306-.376-.516-.433-.207-.057-.448-.007-.72.15l-.816.471.854 1.478zm7.19-2.004l-1.78 1.028.248 1.21-1.079.623-1.011-5.984.941-.543 4.687 3.861-1.079.623-.927-.818zm-1.98.048l1.231-.711-1.684-1.487.453 2.198zm8.521-2.471l-1.015.586-3.847-2.1 1.872 3.24-1.015.586-2.844-4.925 1.015-.586 3.854 2.105-1.875-3.248 1.011-.584 2.844 4.926zm2.193-6.737l-1.509.87 2.369 4.104-1.015.586-2.369-4.103-1.488.86-.475-.823 4.012-2.316.475.822zm3.21.01l-.256-2.812 1.109-.64.196 4.073 1.031 1.786-1.032.595-1.031-1.786-3.43-2.206 1.113-.642 2.3 1.631zM96.895 58.37l-1.36-3.887 1.011-.584 1.751 5.557-1.021.59-2.704-2.832 1.1 3.757-1.022.59-3.936-4.294 1.012-.584 2.686 3.113-1.208-3.967.86-.496 2.831 3.038zm5.162-2.438l-1.78 1.027.248 1.21-1.08.624-1.01-5.984.941-.543 4.687 3.86-1.079.624-.927-.818zm-1.98.047l1.231-.71-1.684-1.487.453 2.197zm5.298-3.014l-.808.467 1.041 1.803-1.015.586-2.844-4.925 1.83-1.057c.582-.336 1.106-.465 1.571-.388.466.077.835.352 1.109.826.194.336.282.659.266.969-.015.306-.132.612-.351.915l2.228 1.398.027.047-1.089.63-1.965-1.27zm-1.283-.355l.819-.473c.255-.147.415-.325.48-.534.065-.212.031-.431-.1-.66-.135-.232-.307-.376-.516-.432-.208-.058-.448-.008-.721.15l-.815.47.853 1.479zm5.777-2.24l-.808.467 1.041 1.803-1.015.586-2.844-4.925 1.83-1.057c.582-.336 1.106-.465 1.571-.388.466.077.835.352 1.109.826.194.336.283.659.266.97-.015.306-.132.61-.351.915l2.228 1.397.027.047-1.089.63-1.965-1.27zm-1.283-.355l.819-.472c.255-.148.415-.326.481-.535.064-.212.03-.431-.101-.659-.134-.232-.306-.377-.516-.433-.208-.057-.448-.007-.721.15l-.815.47.853 1.48zm7.19-2.004l-1.78 1.028.248 1.21-1.079.623-1.01-5.984.94-.543 4.688 3.86-1.08.624-.927-.818zm-1.98.047l1.231-.71-1.683-1.487.452 2.197zm8.521-2.47l-1.015.586-3.846-2.1 1.871 3.24-1.015.586-2.844-4.925 1.015-.586 3.854 2.105-1.875-3.248 1.012-.584 2.843 4.926zm2.193-6.738l-1.509.872 2.369 4.103-1.015.586-2.369-4.103-1.488.859-.475-.822 4.012-2.316.475.821zm3.21.01l-.256-2.811 1.109-.64.196 4.072 1.031 1.786-1.032.596-1.031-1.786-3.429-2.206 1.113-.642 2.299 1.631zm14.209-6.49l-1.361-3.887 1.012-.584 1.751 5.557-1.022.59-2.704-2.832 1.101 3.757-1.022.59-3.936-4.294 1.011-.584 2.686 3.113-1.207-3.967.859-.496 2.832 3.038zm5.161-2.438l-1.779 1.027.248 1.21-1.08.624-1.01-5.984.941-.543 4.687 3.86-1.079.624-.928-.818zm-1.98.047l1.232-.71-1.684-1.487.452 2.197zm5.299-3.014l-.809.467 1.041 1.803-1.015.586-2.843-4.926 1.83-1.056c.582-.336 1.105-.465 1.571-.388.465.077.835.352 1.108.826.194.336.283.659.267.969-.016.306-.133.612-.351.915l2.227 1.398.028.047-1.09.63-1.964-1.27zm-1.283-.355l.818-.473c.255-.147.415-.325.481-.534.064-.212.031-.431-.101-.66-.134-.232-.306-.376-.516-.432-.207-.058-.448-.008-.721.15l-.815.47.854 1.479zm5.777-2.24l-.809.467 1.041 1.803-1.014.586-2.844-4.925 1.83-1.057c.582-.336 1.106-.465 1.571-.388.465.077.835.352 1.108.826.194.336.283.659.267.97-.016.306-.133.61-.351.915l2.227 1.397.028.048-1.089.628-1.965-1.27zm-1.283-.355l.819-.472c.254-.148.415-.326.48-.535.065-.211.031-.431-.101-.659-.134-.232-.306-.377-.516-.433-.207-.057-.447-.007-.72.15l-.816.47.854 1.48zm7.19-2.004l-1.78 1.028.248 1.21-1.079.623-1.011-5.984.941-.543 4.687 3.86-1.079.624-.927-.818zm-1.98.047l1.231-.71-1.684-1.487.453 2.197zm8.521-2.47l-1.015.586-3.847-2.1 1.872 3.24-1.015.586-2.844-4.925 1.015-.586 3.854 2.105-1.875-3.248 1.011-.584 2.844 4.926zm2.193-6.738l-1.509.872 2.369 4.103-1.015.586-2.369-4.103-1.488.859-.475-.822 4.012-2.317.475.822zm3.21.01l-.256-2.811 1.109-.64.196 4.072 1.031 1.787-1.032.595-1.031-1.786-3.43-2.206 1.113-.642 2.3 1.631zm14.208-6.49l-1.36-3.887 1.011-.584 1.751 5.557-1.021.59-2.705-2.832 1.101 3.757-1.022.59-3.936-4.294 1.011-.584 2.686 3.113-1.207-3.967.859-.496 2.832 3.038zm5.162-2.438l-1.78 1.027.248 1.21-1.079.624-1.011-5.984.941-.543 4.687 3.86-1.079.624-.927-.818zm-1.98.047l1.231-.71-1.684-1.487.453 2.197zm5.298-3.014l-.808.467 1.041 1.803-1.015.586-2.844-4.925 1.83-1.057c.582-.336 1.106-.465 1.571-.388.466.077.835.352 1.108.826.194.336.283.659.267.969-.016.306-.133.612-.351.915l2.228 1.398.027.047-1.089.63-1.965-1.27zM194.159.61l.819-.473c.254-.147.415-.325.48-.534.065-.212.031-.432-.101-.66-.134-.232-.306-.376-.516-.432-.207-.058-.447-.008-.72.15l-.816.47.854 1.479zm5.777-2.24l-.808.467L200.169.64l-1.015.586-2.844-4.925 1.83-1.057c.582-.336 1.106-.465 1.571-.388.466.077.835.352 1.109.826.194.336.282.659.266.97-.015.306-.132.61-.351.915l2.228 1.397.027.048-1.089.628-1.965-1.27zm-1.283-.355l.819-.472c.255-.148.415-.326.48-.535.065-.212.031-.431-.1-.659-.135-.232-.307-.377-.516-.433-.208-.057-.448-.007-.721.15l-.815.471.853 1.478zm7.19-2.004l-1.78 1.028.248 1.21-1.079.623-1.01-5.984.94-.543 4.688 3.86-1.08.624-.927-.818zm-1.98.047l1.231-.71-1.683-1.487.452 2.197zm8.521-2.47l-1.015.586-3.846-2.1 1.871 3.24-1.015.586-2.844-4.925 1.015-.586 3.854 2.105-1.875-3.248 1.011-.584 2.844 4.926zm2.193-6.737l-1.509.87 2.369 4.104-1.015.586-2.369-4.103-1.488.859-.475-.822 4.012-2.317.475.822zm3.21.009l-.256-2.811 1.109-.64.196 4.072 1.031 1.787-1.032.595-1.031-1.786-3.429-2.206 1.113-.642 2.299 1.631zm-91.731 68.019l-1.36-3.888 1.011-.584 1.751 5.557-1.021.59-2.704-2.833 1.1 3.758-1.021.59-3.937-4.295 1.012-.584 2.686 3.114-1.208-3.967.859-.496 2.832 3.038zm5.162-2.44l-1.78 1.028.248 1.21-1.079.623-1.01-5.984.94-.543 4.688 3.861-1.08.623-.927-.817zm-1.98.048l1.231-.71-1.683-1.487.452 2.197zm5.298-3.014l-.808.467 1.041 1.803-1.015.586-2.844-4.926 1.83-1.056c.582-.336 1.106-.466 1.571-.389.466.078.835.353 1.109.826.194.336.283.66.266.97-.015.306-.132.611-.351.915l2.228 1.398.027.047-1.089.629-1.965-1.27zm-1.283-.355l.819-.473c.255-.147.415-.325.481-.535.064-.211.03-.43-.101-.658-.134-.233-.306-.377-.516-.433-.208-.058-.448-.008-.721.15l-.815.47.853 1.479zm5.777-2.24l-.808.467 1.041 1.803-1.015.586-2.844-4.925 1.83-1.057c.582-.336 1.106-.465 1.571-.388.466.077.835.352 1.109.826.194.336.283.659.266.969-.015.307-.132.612-.351.915l2.228 1.398.027.047-1.089.63-1.965-1.27zm-1.283-.355l.819-.473c.255-.147.415-.325.481-.534.064-.212.03-.431-.101-.66-.134-.232-.306-.376-.516-.432-.208-.057-.448-.008-.721.15l-.815.47.853 1.48zm7.19-2.004l-1.779 1.028.247 1.21-1.079.623-1.01-5.984.94-.543 4.688 3.86-1.079.624-.928-.818zm-1.98.047l1.231-.71-1.683-1.487.452 2.197zm8.521-2.47l-1.014.586-3.847-2.1 1.871 3.24-1.015.586-2.844-4.925 1.015-.586 3.854 2.105-1.875-3.248 1.012-.584 2.843 4.926zm2.193-6.738l-1.509.871 2.369 4.104-1.014.586-2.37-4.104-1.488.86-.475-.822 4.013-2.317.474.822zm3.21.01l-.256-2.811 1.11-.64.195 4.072 1.031 1.786-1.031.596-1.032-1.786-3.429-2.206 1.113-.642 2.299 1.63zm14.208-6.489l-1.36-3.888 1.012-.584 1.751 5.556-1.022.59-2.704-2.832 1.101 3.758-1.022.59-3.937-4.295 1.012-.584 2.686 3.113-1.208-3.966.86-.496 2.831 3.038zm5.162-2.44l-1.779 1.028.247 1.21-1.079.623-1.01-5.984.94-.543 4.688 3.861-1.079.623-.928-.817zm-1.98.048l1.231-.71-1.683-1.487.452 2.197zm5.298-3.014l-.808.467 1.041 1.803-1.015.586-2.844-4.926 1.831-1.056c.581-.336 1.105-.466 1.571-.389.465.078.834.353 1.108.826.194.336.283.66.266.97-.015.306-.132.611-.351.915l2.228 1.398.027.047-1.089.629-1.965-1.27zm-1.283-.355l.819-.473c.255-.147.415-.325.481-.535.064-.211.03-.43-.101-.659-.134-.232-.306-.376-.516-.432-.208-.058-.448-.008-.721.15l-.815.47.853 1.479zm5.778-2.24l-.809.467 1.041 1.803-1.015.586-2.844-4.925 1.831-1.057c.582-.336 1.105-.465 1.571-.388.465.077.835.352 1.108.826.194.336.283.659.266.969-.015.307-.132.612-.351.915l2.228 1.398.027.047-1.089.63-1.964-1.27zm-1.284-.355l.819-.473c.255-.147.415-.325.481-.534.064-.212.031-.431-.101-.66-.134-.232-.306-.376-.516-.432-.208-.058-.448-.008-.721.15l-.815.47.853 1.48zm7.19-2.004l-1.779 1.028.247 1.21-1.079.623-1.01-5.984.941-.543 4.687 3.86-1.079.624-.928-.818zm-1.98.047l1.232-.71-1.684-1.487.452 2.197zm8.522-2.47l-1.015.585-3.847-2.1 1.871 3.241-1.015.586-2.843-4.925 1.014-.586 3.854 2.105-1.875-3.248 1.012-.584 2.844 4.926zm2.192-6.738l-1.508.871 2.369 4.104-1.015.586-2.369-4.104-1.489.86-.474-.822 4.012-2.317.474.822zm3.21.01l-.256-2.811 1.11-.64.195 4.072 1.032 1.786-1.032.596-1.031-1.786-3.43-2.206 1.113-.642 2.299 1.63z"/>
    <path opacity=".1" d="M96.895 58.37l-1.36-3.887 1.011-.584 1.751 5.557-1.021.59-2.704-2.832 1.1 3.757-1.022.59-3.936-4.294 1.012-.584 2.686 3.113-1.208-3.967.86-.496 2.831 3.038zm5.162-2.438l-1.78 1.027.248 1.21-1.08.624-1.01-5.984.941-.543 4.687 3.86-1.079.624-.927-.818zm-1.98.047l1.231-.71-1.684-1.487.453 2.197zm5.298-3.014l-.808.467 1.041 1.803-1.015.586-2.844-4.925 1.83-1.057c.582-.336 1.106-.465 1.571-.388.466.077.835.352 1.109.826.194.336.282.659.266.969-.015.306-.132.612-.351.915l2.228 1.398.027.047-1.089.63-1.965-1.27zm-1.283-.355l.819-.473c.255-.147.415-.325.48-.534.065-.212.031-.431-.1-.66-.135-.232-.307-.376-.516-.432-.208-.058-.448-.008-.721.15l-.815.47.853 1.479zm5.777-2.24l-.808.467 1.041 1.803-1.015.586-2.844-4.925 1.83-1.057c.582-.336 1.106-.465 1.571-.388.466.077.835.352 1.109.826.194.336.283.659.266.97-.015.306-.132.61-.351.915l2.228 1.397.027.047-1.089.63-1.965-1.27zm-1.283-.355l.819-.472c.255-.148.415-.326.481-.535.064-.212.03-.431-.101-.659-.134-.232-.306-.377-.516-.433-.208-.057-.448-.007-.721.15l-.815.47.853 1.48zm7.19-2.004l-1.78 1.028.248 1.21-1.079.623-1.01-5.984.94-.543 4.688 3.86-1.08.624-.927-.818zm-1.98.047l1.231-.71-1.683-1.487.452 2.197zm8.521-2.47l-1.015.586-3.846-2.1 1.871 3.24-1.015.586-2.844-4.925 1.015-.586 3.854 2.105-1.875-3.248 1.012-.584 2.843 4.926zm2.193-6.738l-1.509.872 2.369 4.103-1.015.586-2.369-4.103-1.488.859-.475-.822 4.012-2.316.475.821zm3.21.01l-.256-2.811 1.109-.64.196 4.072 1.031 1.786-1.032.596-1.031-1.786-3.429-2.206 1.113-.642 2.299 1.631zm14.209-6.49l-1.361-3.887 1.012-.584 1.751 5.557-1.022.59-2.704-2.832 1.101 3.757-1.022.59-3.936-4.294 1.011-.584 2.686 3.113-1.207-3.967.859-.496 2.832 3.038zm5.161-2.438l-1.779 1.027.248 1.21-1.08.624-1.01-5.984.941-.543 4.687 3.86-1.079.624-.928-.818zm-1.98.047l1.232-.71-1.684-1.487.452 2.197zm5.299-3.014l-.809.467 1.041 1.803-1.015.586-2.843-4.926 1.83-1.056c.582-.336 1.105-.465 1.571-.388.465.077.835.352 1.108.826.194.336.283.659.267.969-.016.306-.133.612-.351.915l2.227 1.398.028.047-1.09.63-1.964-1.27zm-1.283-.355l.818-.473c.255-.147.415-.325.481-.534.064-.212.031-.431-.101-.66-.134-.232-.306-.376-.516-.432-.207-.058-.448-.008-.721.15l-.815.47.854 1.479zm5.777-2.24l-.809.467 1.041 1.803-1.014.586-2.844-4.925 1.83-1.057c.582-.336 1.106-.465 1.571-.388.465.077.835.352 1.108.826.194.336.283.659.267.97-.016.306-.133.61-.351.915l2.227 1.397.028.048-1.089.628-1.965-1.27zm-1.283-.355l.819-.472c.254-.148.415-.326.48-.535.065-.211.031-.431-.101-.659-.134-.232-.306-.377-.516-.433-.207-.057-.447-.007-.72.15l-.816.47.854 1.48zm7.19-2.004l-1.78 1.028.248 1.21-1.079.623-1.011-5.984.941-.543 4.687 3.86-1.079.624-.927-.818zm-1.98.047l1.231-.71-1.684-1.487.453 2.197zm8.521-2.47l-1.015.586-3.847-2.1 1.872 3.24-1.015.586-2.844-4.925 1.015-.586 3.854 2.105-1.875-3.248 1.011-.584 2.844 4.926zm2.193-6.738l-1.509.872 2.369 4.103-1.015.586-2.369-4.103-1.488.859-.475-.822 4.012-2.317.475.822zm3.21.01l-.256-2.811 1.109-.64.196 4.072 1.031 1.787-1.032.595-1.031-1.786-3.43-2.206 1.113-.642 2.3 1.631zm14.208-6.49l-1.36-3.887 1.011-.584 1.751 5.557-1.021.59-2.705-2.832 1.101 3.757-1.022.59-3.936-4.294 1.011-.584 2.686 3.113-1.207-3.967.859-.496 2.832 3.038zm5.162-2.438l-1.78 1.027.248 1.21-1.079.624-1.011-5.984.941-.543 4.687 3.86-1.079.624-.927-.818zm-1.98.047l1.231-.71-1.684-1.487.453 2.197zm5.298-3.014l-.808.467 1.041 1.803-1.015.586-2.844-4.925 1.83-1.057c.582-.336 1.106-.465 1.571-.388.466.077.835.352 1.108.826.194.336.283.659.267.969-.016.306-.133.612-.351.915l2.228 1.398.027.047-1.089.63-1.965-1.27zM194.159.61l.819-.473c.254-.147.415-.325.48-.534.065-.212.031-.432-.101-.66-.134-.232-.306-.376-.516-.432-.207-.058-.447-.008-.72.15l-.816.47.854 1.479zm5.777-2.24l-.808.467L200.169.64l-1.015.586-2.844-4.925 1.83-1.057c.582-.336 1.106-.465 1.571-.388.466.077.835.352 1.109.826.194.336.282.659.266.97-.015.306-.132.61-.351.915l2.228 1.397.027.048-1.089.628-1.965-1.27zm-1.283-.355l.819-.472c.255-.148.415-.326.48-.535.065-.212.031-.431-.1-.659-.135-.232-.307-.377-.516-.433-.208-.057-.448-.007-.721.15l-.815.471.853 1.478zm7.19-2.004l-1.78 1.028.248 1.21-1.079.623-1.01-5.984.94-.543 4.688 3.86-1.08.624-.927-.818zm-1.98.047l1.231-.71-1.683-1.487.452 2.197zm8.521-2.47l-1.015.586-3.846-2.1 1.871 3.24-1.015.586-2.844-4.925 1.015-.586 3.854 2.105-1.875-3.248 1.011-.584 2.844 4.926zm2.193-6.737l-1.509.87 2.369 4.104-1.015.586-2.369-4.103-1.488.859-.475-.822 4.012-2.317.475.822zm3.21.009l-.256-2.811 1.109-.64.196 4.072 1.031 1.787-1.032.595-1.031-1.786-3.429-2.206 1.113-.642 2.299 1.631zm-64.303 65.526l-1.36-3.887 1.012-.584 1.751 5.556-1.022.59-2.704-2.832 1.101 3.758-1.022.59-3.937-4.295 1.012-.584 2.686 3.113-1.208-3.966.86-.496 2.831 3.038zm5.162-2.438l-1.779 1.027.247 1.21-1.079.623-1.01-5.984.94-.543 4.688 3.861-1.079.623-.928-.817zm-1.98.047l1.231-.711-1.683-1.486.452 2.197zm5.299-3.014l-.809.467 1.041 1.803-1.015.586-2.844-4.926 1.831-1.056c.581-.336 1.105-.466 1.571-.389.465.077.834.353 1.108.826.194.336.283.66.266.97-.015.306-.132.611-.351.915l2.228 1.398.027.047-1.089.629-1.964-1.27zm-1.284-.355l.819-.473c.255-.147.415-.325.481-.535.064-.211.03-.43-.101-.659-.134-.232-.306-.376-.516-.433-.208-.057-.448-.007-.721.15l-.815.471.853 1.479zm5.778-2.24l-.809.467 1.041 1.803-1.015.586-2.843-4.925 1.83-1.057c.582-.336 1.105-.466 1.571-.389.465.078.835.353 1.108.826.194.337.283.66.266.97-.015.306-.132.611-.351.915l2.228 1.398.027.047-1.089.629-1.964-1.27zm-1.283-.355l.818-.473c.255-.147.415-.325.481-.534.064-.212.031-.432-.101-.66-.134-.232-.306-.376-.516-.432-.208-.058-.448-.008-.721.15l-.815.47.854 1.479zm7.189-2.004l-1.779 1.027.247 1.21-1.079.623-1.01-5.984.941-.543 4.687 3.861-1.079.624-.928-.818zm-1.98.047l1.232-.71-1.684-1.487.452 2.197zm8.522-2.47l-1.015.585-3.847-2.1 1.871 3.241-1.015.586-2.843-4.926 1.014-.586 3.854 2.105-1.875-3.247 1.012-.584 2.844 4.925zm2.192-6.738l-1.508.871 2.369 4.104-1.015.586-2.369-4.104-1.489.86-.474-.822 4.012-2.317.474.822zm3.21.01l-.256-2.811 1.11-.641.195 4.073 1.032 1.786-1.032.596-1.031-1.786-3.43-2.206 1.113-.643 2.299 1.632zm14.209-6.489l-1.361-3.888 1.012-.584 1.751 5.556-1.022.59-2.704-2.832 1.101 3.758-1.022.59-3.936-4.295 1.011-.584 2.686 3.113-1.208-3.966.86-.496 2.832 3.038zm5.161-2.44l-1.779 1.028.247 1.21-1.079.623-1.01-5.984.941-.543 4.687 3.861-1.079.623-.928-.817zm-1.98.048l1.232-.711-1.684-1.486.452 2.197zm5.299-3.014l-.809.467 1.041 1.803-1.015.586-2.843-4.926 1.83-1.056c.582-.336 1.105-.466 1.571-.389.465.077.835.353 1.108.826.194.336.283.66.267.97-.016.306-.133.611-.352.915l2.228 1.398.028.047-1.09.629-1.964-1.27zm-1.283-.355l.818-.473c.255-.147.415-.325.481-.535.064-.211.031-.43-.101-.659-.134-.232-.306-.376-.516-.433-.208-.057-.448-.007-.721.15l-.815.471.854 1.479zm5.777-2.24l-.809.467 1.041 1.803-1.015.586-2.843-4.925 1.83-1.057c.582-.336 1.105-.466 1.571-.389.465.078.835.353 1.108.826.194.337.283.66.267.97-.016.306-.133.611-.351.915l2.227 1.398.028.047-1.09.629-1.964-1.27zm-1.283-.355l.818-.473c.255-.147.415-.325.481-.534.064-.212.031-.432-.101-.66-.134-.232-.306-.376-.516-.432-.207-.058-.448-.008-.721.15l-.815.47.854 1.479zm7.189-2.004l-1.779 1.027.248 1.21-1.08.623-1.01-5.984.941-.543 4.687 3.861-1.079.624-.928-.818zm-1.98.047l1.232-.71-1.684-1.487.452 2.197zm8.522-2.47l-1.015.585-3.847-2.1 1.871 3.241-1.014.586-2.844-4.926 1.015-.586 3.854 2.105-1.875-3.247 1.011-.584 2.844 4.925zm2.193-6.738l-1.509.871 2.369 4.104-1.015.586-2.369-4.104-1.489.86-.474-.822 4.012-2.317.475.822zm3.21.01l-.257-2.811 1.11-.641.196 4.073 1.031 1.786-1.032.596-1.031-1.786-3.43-2.206 1.113-.643 2.3 1.632zM165.04 72.401l-1.36-3.887 1.011-.584 1.751 5.556-1.021.59-2.704-2.832 1.1 3.758-1.021.59-3.937-4.295 1.012-.584 2.686 3.113-1.208-3.967.859-.496 2.832 3.038zm5.162-2.439l-1.78 1.028.248 1.21-1.079.623-1.01-5.984.94-.543 4.687 3.86-1.079.624-.927-.818zm-1.98.047l1.231-.71-1.683-1.487.452 2.198zm5.298-3.013l-.808.466 1.041 1.803-1.015.586-2.844-4.925 1.83-1.057c.582-.336 1.106-.465 1.571-.388.466.077.835.352 1.109.826.194.336.282.659.266.97-.015.306-.132.61-.351.915l2.228 1.397.027.047-1.089.63-1.965-1.27zm-1.283-.356l.819-.472c.255-.148.415-.326.48-.535.065-.212.031-.431-.1-.659-.135-.232-.307-.377-.516-.433-.208-.057-.448-.007-.721.15l-.815.47.853 1.48zm5.777-2.24l-.808.468 1.041 1.803-1.015.586-2.844-4.926 1.83-1.056c.582-.337 1.106-.466 1.571-.389.466.077.835.353 1.109.826.194.336.283.66.266.97-.015.306-.132.611-.351.915l2.228 1.397.027.048-1.089.629-1.965-1.27zm-1.283-.354l.819-.473c.255-.147.415-.325.481-.535.064-.211.03-.43-.101-.659-.134-.232-.306-.376-.516-.432-.208-.058-.448-.008-.721.15l-.815.47.853 1.479zm7.19-2.004l-1.78 1.027.248 1.21-1.079.623-1.01-5.984.94-.543 4.688 3.861-1.08.623-.927-.817zm-1.98.047l1.231-.711-1.683-1.486.452 2.197zm8.521-2.471l-1.015.586-3.846-2.1 1.871 3.24-1.015.587-2.844-4.926 1.015-.586 3.854 2.105-1.875-3.248 1.012-.584 2.843 4.926zm2.193-6.737l-1.509.87 2.369 4.104-1.015.586-2.369-4.103-1.488.86-.475-.823 4.012-2.316.475.822zm3.21.01l-.256-2.812 1.11-.64.195 4.073 1.031 1.786-1.032.596-1.031-1.787-3.429-2.205 1.113-.643 2.299 1.631zm-69.809 1.988l-1.36-3.888 1.011-.584 1.751 5.557-1.021.59-2.704-2.833 1.1 3.758-1.021.59-3.937-4.295 1.012-.584 2.686 3.114-1.208-3.967.859-.496 2.832 3.038zm5.162-2.44l-1.78 1.028.248 1.21-1.079.623-1.01-5.984.94-.543 4.688 3.861-1.08.623-.927-.817zm-1.98.048l1.231-.71-1.683-1.487.452 2.197zm5.298-3.014l-.808.467 1.041 1.803-1.015.586-2.844-4.926 1.83-1.056c.582-.336 1.106-.466 1.571-.389.466.078.835.353 1.109.826.194.336.283.66.266.97-.015.306-.132.611-.351.915l2.228 1.398.027.047-1.089.629-1.965-1.27zm-1.283-.355l.819-.473c.255-.147.415-.325.481-.535.064-.211.03-.43-.101-.658-.134-.233-.306-.377-.516-.433-.208-.058-.448-.008-.721.15l-.815.47.853 1.479zm5.777-2.24l-.808.467 1.041 1.803-1.015.586-2.844-4.925 1.83-1.057c.582-.336 1.106-.465 1.571-.388.466.077.835.352 1.109.826.194.336.283.659.266.969-.015.307-.132.612-.351.915l2.228 1.398.027.047-1.089.63-1.965-1.27zm-1.283-.355l.819-.473c.255-.147.415-.325.481-.534.064-.212.03-.431-.101-.66-.134-.232-.306-.376-.516-.432-.208-.057-.448-.008-.721.15l-.815.47.853 1.48zm7.19-2.004l-1.779 1.028.247 1.21-1.079.623-1.01-5.984.94-.543 4.688 3.86-1.079.624-.928-.818zm-1.98.047l1.231-.71-1.683-1.487.452 2.197zm8.521-2.47l-1.014.586-3.847-2.1 1.871 3.24-1.015.586-2.844-4.925 1.015-.586 3.854 2.105-1.875-3.248 1.012-.584 2.843 4.926zm2.193-6.738l-1.509.871 2.369 4.104-1.014.586-2.37-4.104-1.488.86-.475-.822 4.013-2.317.474.822zm3.21.01l-.256-2.811 1.11-.64.195 4.072 1.031 1.786-1.031.596-1.032-1.786-3.429-2.206 1.113-.642 2.299 1.63zm14.208-6.489l-1.36-3.888 1.012-.584 1.751 5.556-1.022.59-2.704-2.832 1.101 3.758-1.022.59-3.937-4.295 1.012-.584 2.686 3.113-1.208-3.966.86-.496 2.831 3.038zm5.162-2.44l-1.779 1.028.247 1.21-1.079.623-1.01-5.984.94-.543 4.688 3.861-1.079.623-.928-.817zm-1.98.048l1.231-.71-1.683-1.487.452 2.197zm5.298-3.014l-.808.467 1.041 1.803-1.015.586-2.844-4.926 1.831-1.056c.581-.336 1.105-.466 1.571-.389.465.078.834.353 1.108.826.194.336.283.66.266.97-.015.306-.132.611-.351.915l2.228 1.398.027.047-1.089.629-1.965-1.27zm-1.283-.355l.819-.473c.255-.147.415-.325.481-.535.064-.211.03-.43-.101-.659-.134-.232-.306-.376-.516-.432-.208-.058-.448-.008-.721.15l-.815.47.853 1.479zm5.778-2.24l-.809.467 1.041 1.803-1.015.586-2.844-4.925 1.831-1.057c.582-.336 1.105-.465 1.571-.388.465.077.835.352 1.108.826.194.336.283.659.266.969-.015.307-.132.612-.351.915l2.228 1.398.027.047-1.089.63-1.964-1.27zm-1.284-.355l.819-.473c.255-.147.415-.325.481-.534.064-.212.031-.431-.101-.66-.134-.232-.306-.376-.516-.432-.208-.058-.448-.008-.721.15l-.815.47.853 1.48zm7.19-2.004l-1.779 1.028.247 1.21-1.079.623-1.01-5.984.941-.543 4.687 3.86-1.079.624-.928-.818zm-1.98.047l1.232-.71-1.684-1.487.452 2.197zm8.522-2.47l-1.015.585-3.847-2.1 1.871 3.241-1.015.586-2.843-4.925 1.014-.586 3.854 2.105-1.875-3.248 1.012-.584 2.844 4.926zm2.192-6.738l-1.508.871 2.369 4.104-1.015.586-2.369-4.104-1.489.86-.474-.822 4.012-2.317.474.822zm3.21.01l-.256-2.811 1.11-.64.195 4.072 1.032 1.786-1.032.596-1.031-1.786-3.43-2.206 1.113-.642 2.299 1.63zm-64.302 65.525l-1.36-3.887 1.011-.584 1.751 5.556-1.022.59-2.704-2.832 1.101 3.758-1.022.59-3.936-4.295 1.011-.584 2.686 3.113-1.207-3.966.859-.497 2.832 3.038zm5.161-2.438l-1.779 1.027.248 1.21-1.079.623-1.011-5.984.941-.543 4.687 3.861-1.079.623-.928-.817zm-1.98.047l1.232-.711-1.684-1.486.452 2.197zm5.299-3.014l-.809.466 1.041 1.804-1.014.586-2.844-4.926 1.83-1.057c.582-.336 1.106-.465 1.571-.388.465.077.835.352 1.108.826.194.336.283.66.267.97-.016.306-.133.611-.351.915l2.227 1.397.028.048-1.09.629-1.964-1.27zm-1.283-.356l.818-.472c.255-.147.416-.326.481-.535.064-.211.031-.431-.101-.659-.134-.232-.306-.376-.516-.433-.207-.057-.448-.007-.72.15l-.816.471.854 1.478zm5.777-2.239l-.808.467 1.041 1.803-1.015.586-2.844-4.926 1.83-1.056c.582-.336 1.106-.466 1.571-.389.466.077.835.353 1.108.826.195.336.283.66.267.97-.016.306-.133.611-.351.915l2.228 1.398.027.047-1.089.629-1.965-1.27zm-1.283-.355l.819-.473c.254-.147.415-.325.48-.534.065-.212.031-.432-.101-.66-.134-.232-.306-.376-.516-.432-.207-.058-.447-.008-.72.15l-.816.47.854 1.479zm7.19-2.004l-1.78 1.027.248 1.21-1.079.623-1.01-5.984.94-.543 4.687 3.861-1.079.623-.927-.817zm-1.98.047l1.231-.711-1.684-1.486.453 2.197zm8.521-2.47l-1.015.585-3.846-2.1 1.871 3.24-1.015.587-2.844-4.926 1.015-.586 3.854 2.105-1.875-3.247 1.011-.584 2.844 4.925zm2.193-6.738l-1.509.871 2.369 4.104-1.015.586-2.369-4.104-1.488.86-.475-.823 4.012-2.316.475.822zm3.21.01l-.256-2.812 1.109-.64.196 4.073 1.031 1.786-1.032.596-1.031-1.787-3.43-2.205 1.113-.643 2.3 1.632zm14.208-6.49l-1.36-3.887 1.011-.584 1.751 5.556-1.021.59-2.704-2.832 1.1 3.758-1.021.59-3.937-4.295 1.012-.584 2.686 3.113-1.208-3.966.859-.497 2.832 3.038zm5.162-2.438l-1.78 1.027.248 1.21-1.079.623-1.01-5.984.94-.543 4.687 3.861-1.079.623-.927-.817zm-1.98.047l1.231-.711-1.683-1.486.452 2.197zm5.298-3.014l-.808.467 1.041 1.803-1.015.585-2.844-4.925 1.83-1.057c.582-.336 1.106-.465 1.571-.388.466.077.835.352 1.109.826.194.336.282.66.266.97-.015.306-.132.611-.351.915l2.228 1.397.027.048-1.089.629-1.965-1.27zm-1.283-.356l.819-.472c.255-.147.415-.326.48-.535.065-.211.031-.431-.1-.659-.135-.232-.307-.376-.516-.433-.208-.057-.448-.007-.721.15l-.815.471.853 1.478zm5.777-2.239l-.808.467 1.041 1.803-1.015.586-2.844-4.926 1.83-1.056c.582-.336 1.106-.466 1.571-.389.466.077.835.353 1.109.826.194.336.283.66.266.97-.015.306-.132.611-.351.915l2.228 1.398.027.047-1.089.629-1.965-1.27zm-1.283-.355l.819-.473c.255-.147.415-.325.481-.534.064-.212.03-.432-.101-.66-.134-.232-.306-.376-.516-.432-.208-.058-.448-.008-.721.15l-.815.47.853 1.479zm7.19-2.004l-1.78 1.027.248 1.21-1.079.623-1.01-5.984.94-.543 4.688 3.861-1.08.623-.927-.817zm-1.98.047l1.231-.711-1.683-1.486.452 2.197zm8.521-2.47l-1.015.585-3.846-2.1 1.871 3.24-1.015.587-2.844-4.926 1.015-.586 3.854 2.105-1.875-3.247 1.012-.584 2.843 4.925zm2.193-6.738l-1.509.871 2.369 4.104-1.015.586-2.369-4.104-1.488.86-.475-.823 4.012-2.316.475.822zm3.21.01l-.256-2.811 1.109-.641.196 4.073 1.031 1.786-1.032.596-1.031-1.787-3.429-2.205 1.113-.643 2.299 1.631zm-19.269 39.526l-1.361-3.888 1.012-.584 1.751 5.557-1.022.59-2.704-2.832 1.101 3.757-1.022.59-3.936-4.294 1.011-.584 2.686 3.113-1.207-3.967.859-.496 2.832 3.038zm5.161-2.439l-1.779 1.028.248 1.21-1.08.623-1.01-5.984.941-.543 4.687 3.86-1.079.624-.928-.818zm-1.98.047l1.232-.71-1.684-1.487.452 2.197zm5.299-3.014l-.809.467 1.041 1.803-1.015.586-2.843-4.925 1.83-1.057c.582-.336 1.105-.465 1.571-.388.465.077.835.352 1.108.826.194.336.283.659.267.969-.016.307-.133.612-.351.915l2.227 1.398.028.047-1.09.63-1.964-1.27zm-1.283-.355l.818-.473c.255-.147.415-.325.481-.534.064-.212.031-.431-.101-.66-.134-.232-.306-.376-.516-.432-.207-.057-.448-.008-.721.15l-.815.47.854 1.48zm5.777-2.24l-.809.467 1.041 1.803-1.014.586-2.844-4.925 1.83-1.057c.582-.336 1.106-.465 1.571-.388.465.077.835.352 1.108.826.194.336.283.66.267.97-.016.306-.133.611-.351.915l2.227 1.397.028.048-1.09.629-1.964-1.27zm-1.283-.355l.818-.472c.255-.147.416-.326.481-.535.064-.211.031-.431-.101-.659-.134-.232-.306-.376-.516-.433-.207-.057-.448-.007-.72.15l-.816.471.854 1.478zm7.19-2.004l-1.78 1.028.248 1.21-1.079.623-1.011-5.984.941-.543 4.687 3.861-1.079.623-.927-.818zm-1.98.047l1.231-.71-1.684-1.487.453 2.197zm8.521-2.47l-1.015.586-3.847-2.1 1.872 3.24-1.015.586-2.844-4.925 1.015-.586 3.854 2.105-1.875-3.248 1.011-.584 2.844 4.926zm2.193-6.737l-1.509.87 2.369 4.104-1.015.586-2.369-4.103-1.488.859-.475-.822 4.012-2.316.475.822zm3.21.01l-.256-2.812 1.109-.64.196 4.072 1.031 1.787-1.032.595-1.031-1.786-3.43-2.206 1.113-.642 2.3 1.631z"/>
  </g>
  <defs>
    <clipPath id="Frame_90175__clip0">
      <path fill="#fff" d="M0 0h198v52H0z"/>
    </clipPath>
  </defs>
</svg>
